
<?xml version="1.0" standalone="no"?>
<!DOCTYPE svg PUBLIC "-//W3C//DTD SVG 1.1//EN" "http://www.w3.org/Graphics/SVG/1.1/DTD/svg11.dtd" >
<svg xmlns="http://www.w3.org/2000/svg">
<metadata>
This is a custom SVG font generated by IcoMoon.
<iconset grid="16"></iconset>
</metadata>
<defs>
<font id="tadoicons" horiz-adv-x="512" >
<font-face units-per-em="512" ascent="480" descent="-32" />
<missing-glyph horiz-adv-x="512" />
<glyph class="hidden" unicode="&#xf000;" d="M0,480L 512 -32L0 -32 z" horiz-adv-x="0" />
<glyph unicode="&#xe000;" d="M 93.972,480L 481.188,224L 93.972-32 	z" />
<glyph unicode="&#xe001;" d="M 512,425.29L 256,38.077L0,425.29 	z" />
<glyph unicode="&#xe002;" d="M 327.754,300.51L 147.934,300.51 l-0.033-216.683c0-17.638, 14.258-31.658, 31.772-31.658
			c 3.333,0, 52.961,0.022, 52.961,0.022l-0.036-52.799c0,0-18.775,0-63.116,0c-47.381,0-84.871,37.565-84.871,84.478L 84.612,300.51 L 42.259,300.51 
			l0,52.839 l 42.852,0 L 85.111,437.971 l 62.856,21.139l0-105.761 l 179.787,0 L 327.754,300.51 zM 348.836,353.381c0,0, 71.712,0, 116.337,0c 47.151,0, 84.478-37.879, 84.478-81.714l-0.009-272.097l-63.378,0 
			l0,26.269 c0,0-20.876-31.831-74.164-31.831c-63.462,0-126.682,43.607-126.682,116.754c0,73.328, 63.321,116.326, 126.747,116.326
			c 34.167,0, 73.921-0.060, 73.921-0.060s 0.022,40.356, 0.022,43.209c0,14.725-10.905,30.24-30.671,30.24c-36.384,0-106.597,0-106.597,0
			L 348.836,353.381z M 486.159,173.823c0,0-60.208,0.016-73.942,0.016c-21.071,0-63.461-16.388-63.461-63.477
			c0-52.851, 42.849-63.442, 63.368-63.442c 53.169,0, 74.033,31.462, 74.033,59.405L 486.158,173.823 zM 1068.165,353.258c 99.66,0, 158.179-76.861, 158.179-181.048c0-107.184-58.225-183.222-158.179-183.222
			c-101.147,0-158.583,76.331-158.583,183.222C 909.582,276.69, 967.019,353.258, 1068.165,353.258z M 1068.165,41.807
			c 63.257,0, 95.232,66.936, 95.232,129.404c0,62.617-32.562,128.615-95.232,128.615c-63.569,0-95.456-65.999-95.456-128.983
			C 972.708,107.007, 1005.184,41.807, 1068.165,41.807zM 887.775,170.593L 887.775,459.158 l-63.466,0.053l 0.019-137.364c-25.566,19.191-52.86,31.448-94.356,31.448
			c-101.449,0-158.446-76.284-158.446-182.703c0-100.244, 56.998-181.605, 158.446-181.605
			C 829.624-11.013, 887.556,70.603, 887.775,170.593L 887.775,170.593z M 729.972,41.633c-68.862,0-94.873,66.481-94.873,128.959
			c0,63.236, 31.294,129.551, 94.873,129.551c 63.834,0, 94.039-66.317, 94.039-129.551C 824.011,108.115, 793.221,41.633, 729.972,41.633zM 1299.936,459.345c-46.77,0-84.687-37.916-84.687-84.687c0-46.77, 37.916-84.687, 84.687-84.687
	s 84.687,37.916, 84.687,84.687C 1384.623,421.429, 1346.707,459.345, 1299.936,459.345z M 1299.936,311.167
	c-35.064,0-63.49,28.427-63.49,63.49c0,35.065, 28.427,63.492, 63.49,63.492s 63.49-28.427, 63.49-63.492
	C 1363.427,339.593, 1335,311.167, 1299.936,311.167z" horiz-adv-x="1418" />
<glyph unicode="&#xe003;" d="M 316.914,234.24 C 348.085,234.24 373.347,207.541 373.347,176.364 C 373.347,145.196 346.003,118.948 314.822,118.948 L 136.001,118.723 C 136.001,118.723 90.737,115.377 60.447,120.835 C 36.615,122.477 17.766,142.292 17.766,166.543 C 17.766,186.88 31.027,204.1 49.353,210.115 C 47.978,214.979 47.2,220.095 47.2,225.399 C 47.2,256.468 72.383,281.672 103.448,281.672 C 107.455,281.672 111.35,281.265 115.111,280.474 C 126.686,309.572 155.047,330.23 188.262,330.23 C 227.98,330.23 260.738,300.93 266.148,262.697 C 270.104,264.243 274.364,266.028 278.798,266.028 C 298.22,266.028 314.242,254.72 316.71,234.24 C 316.781,234.24 316.843,234.24 316.914,234.24 Z" />
<glyph unicode="&#xe004;" d="M 275.023,164.861 C 279.579,167.653 281.122,166.154 278.477,161.512 L 251.699,114.64 C 249.047,110.001 250.501,103.837 254.949,100.874 L 308.487,65.195 C 312.928,62.228 312.59,58.040 307.722,55.835 L 192.389,3.581 C 187.522,1.376 186.641,2.649 190.416,6.427 L 239.043,55.064 C 242.818,58.842 242.538,64.662 238.415,68.062 L 194.161,104.557 C 190.034,107.957 190.385,112.978 194.942,115.77 L 275.023,164.861 ZM 402.913,324.693 C 441.088,324.693 472.040,293.502 472.033,255.324 C 472.033,217.149 438.535,186.515 400.353,186.515 L 181.347,186.242 C 181.347,186.242 125.914,182.142 88.815,188.822 C 59.624,190.833 36.543,215.088 36.543,244.791 C 36.543,269.698 52.777,290.778 75.223,298.141 C 73.544,304.097 72.585,310.347 72.585,316.843 C 72.585,354.891 103.434,385.707 141.479,385.707 C 146.381,385.707 151.159,385.123 155.767,384.15 C 169.94,419.782 204.667,444.901 245.354,444.901 C 293.994,444.901 334.124,408.637 340.739,361.817 C 345.593,363.708 350.805,365.138 356.239,365.138 C 380.034,365.138 399.654,348.587 402.668,324.693 C 402.76,324.693 402.842,324.693 402.913,324.693 Z" />
<glyph unicode="&#xe005;" d="M 338.080,220.771 C 338.080,175.439 301.332,138.687 256.003,138.687 C 210.671,138.687 173.923,175.442 173.923,220.771 C 173.923,266.083 210.671,302.838 256.003,302.838 C 301.332,302.838 338.080,266.083 338.080,220.771 ZM 256.003,331.172c-5.495,0-9.94,4.454-9.94,9.95L 246.064,404.835 c0,5.492, 4.444,9.943, 9.94,9.943
			c 5.482,0, 9.929-4.451, 9.929-9.943l0-63.71 C 265.933,335.626, 261.485,331.172, 256.003,331.172zM 256.003,33.222c-5.495,0-9.94,4.454-9.94,9.943l0,63.71 c0,5.489, 4.444,9.946, 9.94,9.946
			c 5.482,0, 9.929-4.458, 9.929-9.946l0-63.71 C 265.933,37.676, 261.485,33.222, 256.003,33.222zM 436.842,214.060l-63.724,0 c-5.485,0-9.94,4.448-9.94,9.929c0,5.502, 4.454,9.94, 9.94,9.94l 63.724,0 
			c 5.485,0, 9.936-4.437, 9.936-9.94C 446.781,218.508, 442.33,214.060, 436.842,214.060zM 138.868,214.060L 75.155,214.060 c-5.475,0-9.933,4.448-9.933,9.929c0,5.502, 4.458,9.94, 9.933,9.94l 63.713,0 
			c 5.499,0, 9.946-4.437, 9.946-9.94C 148.815,218.508, 144.367,214.060, 138.868,214.060zM 338.811,296.878c-2.536,0-5.082,0.98-7.021,2.915c-3.891,3.884-3.891,10.172,0,14.056l 45.046,45.049
			c 3.884,3.874, 10.168,3.874, 14.056,0c 3.888-3.884, 3.888-10.172,0-14.046L 345.839,299.793C 343.9,297.858, 341.361,296.878, 338.811,296.878zM 128.133,86.19c-2.55,0-5.082,0.963-7.028,2.908c-3.888,3.888-3.888,10.182,0,14.066L 166.161,148.207
			c 3.874,3.871, 10.172,3.871, 14.046,0c 3.881-3.884, 3.881-10.175,0-14.066l-45.046-45.042C 133.219,87.153, 130.676,86.19, 128.133,86.19zM 173.175,296.888c-2.543,0-5.082,0.969-7.018,2.908L 121.105,344.852c-3.888,3.874-3.888,10.165,0,14.046
			c 3.874,3.874, 10.168,3.874, 14.053,0l 45.046-45.042c 3.881-3.884, 3.881-10.179,0-14.063C 178.268,297.858, 175.729,296.888, 173.175,296.888zM 383.874,86.19c-2.553,0-5.089,0.963-7.038,2.908l-45.046,45.059c-3.891,3.895-3.891,10.179,0,14.056
			c 3.881,3.884, 10.168,3.884, 14.049,0l 45.053-45.049c 3.888-3.891, 3.888-10.179,0-14.066C 388.953,87.153, 386.406,86.19, 383.874,86.19
			z" />
<glyph unicode="&#xe006;" d="M 402.917,324.693 C 441.091,324.693 472.037,293.093 472.030,254.915 C 472.030,216.743 438.538,185.696 400.353,185.696 L 181.35,185.423 C 181.35,185.423 125.911,181.323 88.818,188.003 C 59.624,190.013 36.547,214.275 36.547,243.975 C 36.547,268.882 52.78,289.969 75.22,297.329 C 73.547,303.288 72.588,309.542 72.588,316.037 C 72.588,354.086 103.431,384.915 141.476,384.915 C 146.384,384.915 151.159,384.355 155.764,383.386 C 169.943,419.014 204.667,444.187 245.35,444.187 C 293.997,444.187 334.124,408.023 340.743,361.202 C 345.59,363.093 350.805,364.728 356.239,364.728 C 380.030,364.728 399.654,348.587 402.674,324.693 C 402.76,324.693 402.838,324.693 402.917,324.693 ZM 175.787,130.133 L 141.36,130.133 L 164.997,106.496 L 160.171,101.67 L 138.24,123.6 L 138.24,92.587 L 131.413,92.587 L 131.413,126.013 L 107.069,101.67 L 102.243,106.496 L 125.88,130.133 L 93.867,130.133 L 93.867,136.96 L 124.88,136.96 L 104.656,157.184 L 109.483,162.010 L 131.413,140.080 L 131.413,171.093 L 138.24,171.093 L 138.24,142.493 L 160.171,164.424 L 164.997,159.597 L 142.36,136.96 L 175.787,136.96 ZM 295.253,130.133 L 260.826,130.133 L 284.464,106.496 L 279.637,101.67 L 257.707,123.6 L 257.707,92.587 L 250.88,92.587 L 250.88,126.013 L 226.536,101.67 L 221.71,106.496 L 245.347,130.133 L 213.333,130.133 L 213.333,136.96 L 244.347,136.96 L 224.123,157.184 L 228.949,162.010 L 250.88,140.080 L 250.88,171.093 L 257.707,171.093 L 257.707,142.493 L 279.637,164.424 L 284.464,159.597 L 261.827,136.96 L 295.253,136.96 ZM 414.72,130.133 L 380.293,130.133 L 403.93,106.496 L 399.104,101.67 L 377.173,123.6 L 377.173,92.587 L 370.347,92.587 L 370.347,126.013 L 346.003,101.67 L 341.176,106.496 L 364.814,130.133 L 332.8,130.133 L 332.8,136.96 L 363.814,136.96 L 343.59,157.184 L 348.416,162.010 L 370.347,140.080 L 370.347,171.093 L 377.173,171.093 L 377.173,142.493 L 399.104,164.424 L 403.93,159.597 L 381.293,136.96 L 414.72,136.96 ZM 233.813,41.387 L 199.386,41.387 L 223.024,17.749 L 218.197,12.923 L 196.267,34.854 L 196.267,3.84 L 189.44,3.84 L 189.44,37.267 L 165.096,12.923 L 160.27,17.749 L 183.907,41.387 L 151.893,41.387 L 151.893,48.213 L 182.907,48.213 L 162.683,68.437 L 167.509,73.264 L 189.44,51.333 L 189.44,82.347 L 196.267,82.347 L 196.267,53.746 L 218.197,75.677 L 223.024,70.851 L 200.387,48.213 L 233.813,48.213 ZM 353.28,41.387 L 318.853,41.387 L 342.49,17.749 L 337.664,12.923 L 315.733,34.854 L 315.733,3.84 L 308.907,3.84 L 308.907,37.267 L 284.563,12.923 L 279.736,17.749 L 303.374,41.387 L 271.36,41.387 L 271.36,48.213 L 302.374,48.213 L 282.15,68.437 L 286.976,73.264 L 308.907,51.333 L 308.907,82.347 L 315.733,82.347 L 315.733,53.746 L 337.664,75.677 L 342.49,70.851 L 319.853,48.213 L 353.28,48.213 Z" />
<glyph unicode="&#xe007;" d="M 134.564,388.294c-3.441-3.441-9.025-3.441-12.465,0.010l-29.696,29.689c-3.434,3.441-3.441,9.018,0,12.462
				c 3.434,3.437, 9.025,3.434, 12.465-0.003l 29.686-29.693C 138.004,397.315, 138.004,391.738, 134.564,388.294zM 311.084,417.997l-29.696-29.696c-3.441-3.444-9.028-3.451-12.455-0.014c-3.451,3.451-3.451,9.028,0,12.469
				l 29.699,29.696c 3.43,3.434, 9.004,3.444, 12.452-0.003C 314.518,427.011, 314.518,421.434, 311.084,417.997zM 207.968,418.703c-1.594-1.601-3.799-2.567-6.229-2.57c-4.871,0.003-8.817,3.942-8.817,8.806l0,41.134
				c0,4.864, 3.946,8.806, 8.817,8.813c 4.864,0, 8.813-3.946, 8.806-8.81l0-41.137 C 210.534,422.502, 209.568,420.297, 207.968,418.703zM 104.144,314.89c-1.591-1.597-3.799-2.577-6.226-2.577L 56.774,312.313 c-4.864-0.003-8.803,3.942-8.803,8.81
				c0,4.857, 3.939,8.8, 8.803,8.806l 41.134,0.007c 4.871,0, 8.813-3.942, 8.823-8.813C 106.721,318.693, 105.745,316.484, 104.144,314.89zM 195.417,317.341 C 170.704,317.341 149.975,300.162 144.428,277.111 C 124.297,305.51 126.874,345.088 152.32,370.534 C 180.736,398.947 226.802,398.94 255.208,370.534 C 258.522,367.22 261.414,363.643 263.96,359.902 C 237.558,357.711 214.576,341.333 203.824,316.71 C 201.182,317.116 198.362,317.341 195.417,317.341 ZM 220.16,96 L 185.733,96 L 209.37,72.363 L 204.544,67.536 L 182.613,89.467 L 182.613,58.453 L 175.787,58.453 L 175.787,91.88 L 151.443,67.536 L 146.616,72.363 L 170.254,96 L 138.24,96 L 138.24,102.827 L 169.254,102.827 L 149.030,123.051 L 153.856,127.877 L 175.787,105.946 L 175.787,136.96 L 182.613,136.96 L 182.613,108.36 L 204.544,130.29 L 209.37,125.464 L 186.733,102.827 L 220.16,102.827 ZM 339.627,96 L 305.2,96 L 328.837,72.363 L 324.011,67.536 L 302.080,89.467 L 302.080,58.453 L 295.253,58.453 L 295.253,91.88 L 270.909,67.536 L 266.083,72.363 L 289.72,96 L 257.707,96 L 257.707,102.827 L 288.72,102.827 L 268.496,123.051 L 273.323,127.877 L 295.253,105.946 L 295.253,136.96 L 302.080,136.96 L 302.080,108.36 L 324.011,130.29 L 328.837,125.464 L 306.2,102.827 L 339.627,102.827 ZM 459.093,96 L 424.666,96 L 448.304,72.363 L 443.477,67.536 L 421.547,89.467 L 421.547,58.453 L 414.72,58.453 L 414.72,91.88 L 390.376,67.536 L 385.55,72.363 L 409.187,96 L 377.173,96 L 377.173,102.827 L 408.187,102.827 L 387.963,123.051 L 392.789,127.877 L 414.72,105.946 L 414.72,136.96 L 421.547,136.96 L 421.547,108.36 L 443.477,130.29 L 448.304,125.464 L 425.667,102.827 L 459.093,102.827 ZM 278.187,7.253 L 243.76,7.253 L 267.397-16.384 L 262.571-21.21 L 240.64,0.72 L 240.64-30.293 L 233.813-30.293 L 233.813,3.133 L 209.469-21.21 L 204.643-16.384 L 228.28,7.253 L 196.267,7.253 L 196.267,14.080 L 227.28,14.080 L 207.056,34.304 L 211.883,39.13 L 233.813,17.2 L 233.813,48.213 L 240.64,48.213 L 240.64,19.613 L 262.571,41.544 L 267.397,36.717 L 244.76,14.080 L 278.187,14.080 ZM 397.653,7.253 L 363.226,7.253 L 386.864-16.384 L 382.037-21.21 L 360.107,0.72 L 360.107-30.293 L 353.28-30.293 L 353.28,3.133 L 328.936-21.21 L 324.11-16.384 L 347.747,7.253 L 315.733,7.253 L 315.733,14.080 L 346.747,14.080 L 326.523,34.304 L 331.349,39.13 L 353.28,17.2 L 353.28,48.213 L 360.107,48.213 L 360.107,19.613 L 382.037,41.544 L 386.864,36.717 L 364.227,14.080 L 397.653,14.080 ZM 411.447,257.065 C 442.368,257.065 467.432,230.502 467.432,199.574 C 467.432,168.646 440.296,142.527 409.358,142.527 L 231.929,142.312 C 231.929,142.312 187.013,138.994 156.966,144.408 C 133.321,146.033 114.62,165.693 114.62,189.757 C 114.62,209.934 127.771,227.028 145.954,232.987 C 144.599,237.814 143.821,242.896 143.821,248.16 C 143.821,278.985 168.81,303.991 199.629,303.991 C 203.602,303.991 207.483,303.599 211.21,302.81 C 222.689,331.677 250.819,352.191 283.781,352.191 C 323.202,352.191 355.71,323.13 361.062,285.198 C 365.005,286.734 369.217,288.539 373.623,288.539 C 392.899,288.539 408.791,277.545 411.238,257.065 C 411.313,257.065 411.378,257.065 411.447,257.065 Z" />
<glyph unicode="&#xe008;" d="M 214.265,141.855 C 222.396,138.615 217.44,107.035 214.193,98.905 C 210.954,90.771 201.735,86.811 193.601,90.054 C 185.47,93.297 181.507,102.519 184.753,110.65 C 187.993,118.777 206.131,145.097 214.265,141.855 ZM 129.475,141.855 C 137.605,138.615 132.649,107.035 129.403,98.905 C 126.164,90.771 116.941,86.811 108.81,90.054 C 100.676,93.297 96.717,102.519 99.963,110.65 C 103.206,118.777 121.344,145.097 129.475,141.855 ZM 299.056,141.855 C 307.186,138.615 302.234,107.039 298.988,98.905 C 295.741,90.771 286.522,86.811 278.391,90.054 C 270.257,93.297 266.298,102.519 269.544,110.65 C 272.783,118.777 290.925,145.097 299.056,141.855 ZM 383.846,141.855 C 391.98,138.615 387.021,107.035 383.775,98.905 C 380.532,90.771 371.313,86.811 363.182,90.054 C 355.052,93.297 351.089,102.519 354.335,110.65 C 357.577,118.777 375.716,145.097 383.846,141.855 ZM 154.911,74.025 C 163.045,70.779 158.085,39.202 154.842,31.075 C 151.6,22.944 142.377,18.982 134.246,22.221 C 126.116,25.467 122.153,34.69 125.399,42.817 C 128.642,50.947 146.78,77.268 154.911,74.025 ZM 239.705,74.025 C 247.832,70.779 242.879,39.202 239.636,31.075 C 236.394,22.944 227.174,18.982 219.040,22.221 C 210.91,25.467 206.95,34.69 210.193,42.817 C 213.432,50.947 231.571,77.268 239.705,74.025 ZM 324.495,74.025 C 332.623,70.779 327.67,39.202 324.424,31.075 C 321.181,22.944 311.962,18.982 303.831,22.221 C 295.7,25.467 291.738,34.69 294.984,42.817 C 298.226,50.947 316.361,77.268 324.495,74.025 ZM 404.627,305.92 C 442.798,305.92 473.74,275.070 473.737,236.892 C 473.737,198.717 440.245,168.424 402.063,168.424 L 183.054,168.148 C 183.054,168.148 127.618,164.048 90.528,170.728 C 61.338,172.742 38.257,196.997 38.257,226.7 C 38.257,251.607 54.487,272.684 76.937,280.047 C 75.254,286.007 74.295,292.25 74.295,298.745 C 74.295,336.794 105.141,367.599 143.189,367.599 C 148.087,367.599 152.866,366.991 157.471,366.022 C 171.646,401.65 206.377,426.728 247.057,426.728 C 295.704,426.728 335.828,390.376 342.446,343.555 C 347.296,345.443 352.515,346.706 357.946,346.706 C 381.737,346.706 401.36,329.813 404.374,305.92 C 404.47,305.92 404.545,305.92 404.627,305.92 Z" />
<glyph unicode="&#xe009;" d="M 323.168,66.888 C 331.196,63.686 326.294,32.498 323.089,24.47 C 319.894,16.435 310.787,12.524 302.756,15.725 C 294.721,18.93 290.816,28.037 294.021,36.069 C 297.213,44.093 315.133,70.089 323.168,66.888 ZM 247.794,159.007 C 255.823,155.805 250.924,124.617 247.723,116.589 C 244.528,108.554 235.418,104.643 227.383,107.844 C 219.354,111.049 215.446,120.153 218.648,128.188 C 221.843,136.212 239.763,162.208 247.794,159.007 ZM 402.917,321.28 C 441.091,321.28 472.037,289.679 472.030,251.501 C 472.030,213.33 438.538,182.282 400.353,182.282 L 181.35,182.009 C 181.35,182.009 125.911,177.91 88.818,184.59 C 59.624,186.6 36.547,210.862 36.547,240.561 C 36.547,265.469 52.78,286.556 75.22,293.915 C 73.547,299.875 72.588,306.128 72.588,312.624 C 72.588,350.672 103.431,381.501 141.476,381.501 C 146.384,381.501 151.159,380.942 155.764,379.972 C 169.943,415.601 204.667,440.774 245.35,440.774 C 293.997,440.774 334.124,404.61 340.743,357.789 C 345.59,359.68 350.805,361.315 356.239,361.315 C 380.030,361.315 399.654,345.173 402.674,321.28 C 402.76,321.28 402.838,321.28 402.917,321.28 ZM 390.827,126.72 L 356.4,126.72 L 380.037,103.083 L 375.211,98.256 L 353.28,120.187 L 353.28,89.173 L 346.453,89.173 L 346.453,122.6 L 322.109,98.256 L 317.283,103.083 L 340.92,126.72 L 308.907,126.72 L 308.907,133.547 L 339.92,133.547 L 319.696,153.771 L 324.523,158.597 L 346.453,136.666 L 346.453,167.68 L 353.28,167.68 L 353.28,139.080 L 375.211,161.010 L 380.037,156.184 L 357.4,133.547 L 390.827,133.547 ZM 257.707,41.387 L 223.28,41.387 L 246.917,17.749 L 242.091,12.923 L 220.16,34.854 L 220.16,3.84 L 213.333,3.84 L 213.333,37.267 L 188.989,12.923 L 184.163,17.749 L 207.8,41.387 L 175.787,41.387 L 175.787,48.213 L 206.8,48.213 L 186.576,68.437 L 191.403,73.264 L 213.333,51.333 L 213.333,82.347 L 220.16,82.347 L 220.16,53.746 L 242.091,75.677 L 246.917,70.851 L 224.28,48.213 L 257.707,48.213 ZM 175.787,126.72 L 141.36,126.72 L 164.997,103.083 L 160.171,98.256 L 138.24,120.187 L 138.24,89.173 L 131.413,89.173 L 131.413,122.6 L 107.069,98.256 L 102.243,103.083 L 125.88,126.72 L 93.867,126.72 L 93.867,133.547 L 124.88,133.547 L 104.656,153.771 L 109.483,158.597 L 131.413,136.666 L 131.413,167.68 L 138.24,167.68 L 138.24,139.080 L 160.171,161.010 L 164.997,156.184 L 142.36,133.547 L 175.787,133.547 Z" />
<glyph unicode="&#xe00a;" d="M 364.128,36.168 C 372.156,32.966 367.254,1.778 364.049-6.25 C 360.854-14.285 351.747-18.196 343.716-14.995 C 335.681-11.79 331.776-2.683 334.981,5.349 C 338.173,13.373 356.093,39.369 364.128,36.168 ZM 288.754,128.287 C 296.783,125.085 291.884,93.897 288.683,85.869 C 285.488,77.834 276.378,73.923 268.343,77.124 C 260.314,80.329 256.406,89.433 259.608,97.468 C 262.803,105.492 280.723,131.488 288.754,128.287 ZM 134.564,388.294c-3.441-3.441-9.025-3.441-12.465,0.010l-29.696,29.689c-3.434,3.441-3.441,9.018,0,12.462
				c 3.434,3.437, 9.025,3.434, 12.465-0.003l 29.686-29.693C 138.004,397.315, 138.004,391.738, 134.564,388.294zM 311.084,417.997l-29.696-29.696c-3.441-3.444-9.028-3.451-12.455-0.014c-3.451,3.451-3.451,9.028,0,12.469
				l 29.699,29.696c 3.43,3.434, 9.004,3.444, 12.452-0.003C 314.518,427.011, 314.518,421.434, 311.084,417.997zM 207.968,418.703c-1.594-1.601-3.799-2.567-6.229-2.57c-4.871,0.003-8.817,3.942-8.817,8.806l0,41.134
				c0,4.864, 3.946,8.806, 8.817,8.813c 4.864,0, 8.813-3.946, 8.806-8.81l0-41.137 C 210.534,422.502, 209.568,420.297, 207.968,418.703zM 104.144,314.89c-1.591-1.597-3.799-2.577-6.226-2.577L 56.774,312.313 c-4.864-0.003-8.803,3.942-8.803,8.81
				c0,4.857, 3.939,8.8, 8.803,8.806l 41.134,0.007c 4.871,0, 8.813-3.942, 8.823-8.813C 106.721,318.693, 105.745,316.484, 104.144,314.89zM 195.417,317.341 C 170.704,317.341 149.975,300.162 144.428,277.111 C 124.297,305.51 126.874,345.088 152.32,370.534 C 180.736,398.947 226.802,398.94 255.208,370.534 C 258.522,367.22 261.414,363.643 263.96,359.902 C 237.558,357.711 214.576,341.333 203.824,316.71 C 201.182,317.116 198.362,317.341 195.417,317.341 ZM 431.787,96 L 397.36,96 L 420.997,72.363 L 416.171,67.536 L 394.24,89.467 L 394.24,58.453 L 387.413,58.453 L 387.413,91.88 L 363.069,67.536 L 358.243,72.363 L 381.88,96 L 349.867,96 L 349.867,102.827 L 380.88,102.827 L 360.656,123.051 L 365.483,127.877 L 387.413,105.946 L 387.413,136.96 L 394.24,136.96 L 394.24,108.36 L 416.171,130.29 L 420.997,125.464 L 398.36,102.827 L 431.787,102.827 ZM 298.667,10.667 L 264.24,10.667 L 287.877-12.971 L 283.051-17.797 L 261.12,4.134 L 261.12-26.88 L 254.293-26.88 L 254.293,6.547 L 229.949-17.797 L 225.123-12.971 L 248.76,10.667 L 216.747,10.667 L 216.747,17.493 L 247.76,17.493 L 227.536,37.717 L 232.363,42.544 L 254.293,20.613 L 254.293,51.627 L 261.12,51.627 L 261.12,23.026 L 283.051,44.957 L 287.877,40.131 L 265.24,17.493 L 298.667,17.493 ZM 216.747,96 L 182.32,96 L 205.957,72.363 L 201.131,67.536 L 179.2,89.467 L 179.2,58.453 L 172.373,58.453 L 172.373,91.88 L 148.029,67.536 L 143.203,72.363 L 166.84,96 L 134.827,96 L 134.827,102.827 L 165.84,102.827 L 145.616,123.051 L 150.443,127.877 L 172.373,105.946 L 172.373,136.96 L 179.2,136.96 L 179.2,108.36 L 201.131,130.29 L 205.957,125.464 L 183.32,102.827 L 216.747,102.827 ZM 411.447,257.065 C 442.368,257.065 467.432,230.502 467.432,199.574 C 467.432,168.646 440.296,142.527 409.358,142.527 L 231.929,142.312 C 231.929,142.312 187.013,138.994 156.966,144.408 C 133.321,146.033 114.62,165.693 114.62,189.757 C 114.62,209.934 127.771,227.028 145.954,232.987 C 144.599,237.814 143.821,242.896 143.821,248.16 C 143.821,278.985 168.81,303.991 199.629,303.991 C 203.602,303.991 207.483,303.599 211.21,302.81 C 222.689,331.677 250.819,352.191 283.781,352.191 C 323.202,352.191 355.71,323.13 361.062,285.198 C 365.005,286.734 369.217,288.539 373.623,288.539 C 392.899,288.539 408.791,277.545 411.238,257.065 C 411.313,257.065 411.378,257.065 411.447,257.065 Z" />
<glyph unicode="&#xe00b;" d="M 250.105,106.015 C 258.236,102.772 253.28,71.195 250.033,63.068 C 246.794,54.934 237.575,50.975 229.441,54.214 C 221.31,57.457 217.347,66.679 220.593,74.81 C 223.833,82.937 241.971,109.257 250.105,106.015 ZM 165.315,106.015 C 173.445,102.772 168.489,71.195 165.243,63.068 C 162.004,54.934 152.781,50.975 144.65,54.214 C 136.516,57.457 132.557,66.679 135.803,74.81 C 139.046,82.937 157.184,109.257 165.315,106.015 ZM 334.896,106.015 C 343.026,102.772 338.070,71.195 334.824,63.068 C 331.581,54.934 322.362,50.975 314.231,54.214 C 306.097,57.457 302.138,66.679 305.384,74.81 C 308.627,82.937 326.765,109.257 334.896,106.015 ZM 419.686,106.015 C 427.82,102.772 422.861,71.195 419.615,63.068 C 416.375,54.934 407.156,50.975 399.025,54.214 C 390.895,57.457 386.932,66.679 390.175,74.81 C 393.417,82.937 411.552,109.257 419.686,106.015 ZM 190.751,38.185 C 198.885,34.939 193.925,3.362 190.682-4.765 C 187.44-12.899 178.217-16.858 170.086-13.619 C 161.956-10.373 157.993-1.154 161.239,6.973 C 164.482,15.107 182.62,41.428 190.751,38.185 ZM 275.545,38.185 C 283.672,34.939 278.719,3.362 275.476-4.765 C 272.234-12.899 263.014-16.858 254.88-13.619 C 246.75-10.373 242.79-1.154 246.033,6.973 C 249.272,15.107 267.411,41.428 275.545,38.185 ZM 360.332,38.185 C 368.463,34.939 363.506,3.362 360.264-4.765 C 357.021-12.899 347.802-16.858 339.671-13.619 C 331.54-10.373 327.574-1.154 330.82,6.973 C 334.066,15.107 352.198,41.428 360.332,38.185 ZM 131.383,378.054c-3.441-3.441-9.025-3.441-12.465,0.010l-29.696,29.689c-3.434,3.441-3.441,9.018,0,12.462
					c 3.434,3.437, 9.025,3.434, 12.465-0.003l 29.686-29.693C 134.823,387.075, 134.823,381.498, 131.383,378.054zM 307.903,407.757l-29.696-29.696c-3.441-3.444-9.028-3.451-12.455-0.014c-3.451,3.451-3.451,9.028,0,12.469
					l 29.699,29.696c 3.43,3.434, 9.004,3.444, 12.452-0.003C 311.337,416.771, 311.337,411.194, 307.903,407.757zM 204.79,408.463c-1.594-1.601-3.799-2.567-6.229-2.57c-4.871,0.003-8.817,3.942-8.817,8.806l0,41.134
					c0,4.864, 3.946,8.806, 8.817,8.813c 4.864,0, 8.813-3.946, 8.806-8.81l0-41.137 C 207.357,412.262, 206.391,410.057, 204.79,408.463zM 100.966,304.65c-1.591-1.597-3.799-2.577-6.226-2.577L 53.596,302.073 c-4.864-0.003-8.803,3.942-8.803,8.81
					c0,4.857, 3.939,8.8, 8.803,8.806l 41.134,0.007c 4.871,0, 8.813-3.942, 8.823-8.813C 103.54,308.453, 102.567,306.244, 100.966,304.65zM 192.236,307.101 C 167.523,307.101 146.794,289.922 141.247,266.871 C 121.115,295.27 123.692,334.848 149.139,360.294 C 177.555,388.707 223.621,388.7 252.027,360.294 C 255.341,356.98 258.232,353.403 260.779,349.662 C 234.377,347.471 211.395,331.093 200.643,306.47 C 198.001,306.876 195.181,307.101 192.236,307.101 ZM 408.265,246.825 C 439.187,246.825 464.261,220.259 464.261,189.331 C 464.261,158.403 437.125,132.284 406.187,132.284 L 228.748,132.072 C 228.748,132.072 183.832,128.754 153.784,134.168 C 130.14,135.793 111.439,155.453 111.439,179.517 C 111.439,199.694 124.59,216.788 142.773,222.747 C 141.418,227.574 140.64,232.656 140.64,237.92 C 140.64,268.745 165.629,293.751 196.448,293.751 C 200.421,293.751 204.302,293.359 208.029,292.57 C 219.508,321.437 247.637,341.951 280.6,341.951 C 320.020,341.951 352.529,312.89 357.881,274.958 C 361.824,276.494 366.036,278.299 370.442,278.299 C 389.717,278.299 405.61,267.305 408.057,246.825 C 408.132,246.825 408.197,246.825 408.265,246.825 Z" />
<glyph unicode="&#xe00c;" d="M 323.168,63.474 C 331.192,60.273 326.294,29.085 323.089,21.060 C 319.898,13.022 310.791,9.114 302.759,12.315 C 294.721,15.517 290.819,24.624 294.021,32.655 C 297.213,40.68 315.133,66.676 323.168,63.474 ZM 247.794,155.593 C 255.823,152.392 250.924,121.204 247.723,113.179 C 244.528,105.141 235.418,101.233 227.383,104.434 C 219.354,107.636 215.446,116.739 218.648,124.774 C 221.843,132.799 239.763,158.795 247.794,155.593 ZM 402.917,317.867 C 441.095,317.867 472.037,286.266 472.030,248.088 C 472.030,209.917 438.542,178.865 400.353,178.865 L 181.35,178.596 C 181.35,178.596 125.911,174.496 88.818,181.176 C 59.624,183.187 36.547,207.445 36.547,237.148 C 36.547,262.055 52.78,283.143 75.22,290.502 C 73.547,296.462 72.588,302.715 72.588,309.21 C 72.588,347.259 103.431,378.088 141.476,378.088 C 146.384,378.088 151.159,377.528 155.764,376.559 C 169.943,412.187 204.667,437.361 245.35,437.361 C 293.997,437.361 334.128,401.196 340.743,354.376 C 345.59,356.267 350.805,357.902 356.239,357.902 C 380.030,357.902 399.654,341.76 402.674,317.867 C 402.76,317.867 402.842,317.867 402.917,317.867 Z" />
<glyph unicode="&#xe00d;" d="M 352.014,204.046 C 382.935,204.046 408.006,177.48 407.999,146.548 C 407.999,115.62 380.863,89.504 349.925,89.504 L 172.496,89.286 C 172.496,89.286 127.58,85.968 97.533,91.385 C 73.888,93.010 55.187,112.671 55.187,136.731 C 55.187,156.911 68.338,174.005 86.521,179.965 C 85.166,184.791 84.388,189.87 84.388,195.133 C 84.388,225.963 109.377,250.969 140.196,250.969 C 144.169,250.969 148.050,250.576 151.777,249.788 C 163.26,278.654 191.389,299.168 224.352,299.168 C 263.769,299.168 296.277,270.111 301.629,232.178 C 305.572,233.711 309.784,235.517 314.191,235.517 C 333.466,235.517 349.358,224.526 351.805,204.046 C 351.881,204.046 351.945,204.046 352.014,204.046 ZM 449.434,195.645 C 453.932,195.864 454.758,194.021 451.072,191.433 C 446.099,187.955 440.723,184.893 434.951,182.361 C 426.745,178.76 418.314,176.442 409.863,175.254 C 400.203,195.092 381.041,209.65 358.909,212.186 C 353.604,231.769 336.739,244.050 314.194,244.050 C 312.054,244.050 310.006,243.767 308.067,243.333 C 306.528,249.146 304.329,254.669 301.674,259.919 C 297.499,300.083 319.314,340.067 358.294,357.161 C 364.066,359.694 369.964,361.571 375.893,362.871 C 380.293,363.841 381.092,361.981 377.88,358.816 C 350.539,331.844 350.034,292.017 366.367,254.761 C 382.706,217.491 411.071,193.806 449.434,195.645 Z" />
<glyph unicode="&#xe00e;" d="M 320.505,333.278c 5.239-1.048, 5.219-3.444, 0.225-5.352C 278.2,311.658, 247.979,270.541, 247.979,222.307
	c0-48.254, 30.222-89.378, 72.752-105.646c 4.994-1.908, 5.014-4.308-0.225-5.352c-7.059-1.41-14.353-2.178-21.832-2.178
	c-62.515,0-113.169,50.671-113.169,113.176c0,62.481, 50.654,113.149, 113.169,113.149C 306.152,335.456, 313.446,334.691, 320.505,333.278z" />
<glyph unicode="&#xe00f;" d="M 402.917,321.28 C 441.095,321.28 472.037,289.679 472.030,251.501 C 472.030,213.33 438.542,182.279 400.353,182.279 L 181.35,182.006 C 181.35,182.006 125.911,177.91 88.818,184.59 C 59.624,186.6 36.547,210.859 36.547,240.561 C 36.547,265.469 52.78,286.556 75.22,293.915 C 73.547,299.875 72.588,306.128 72.588,312.624 C 72.588,350.672 103.431,381.501 141.476,381.501 C 146.384,381.501 151.159,380.942 155.764,379.972 C 169.943,415.601 204.667,440.774 245.35,440.774 C 293.997,440.774 334.128,404.61 340.743,357.789 C 345.59,359.68 350.805,361.315 356.239,361.315 C 380.030,361.315 399.654,345.173 402.674,321.28 C 402.76,321.28 402.842,321.28 402.917,321.28 ZM 124.546,102.352c-0.335,0-0.669,0.051-0.997,0.15c-1.157,0.355-2.041,1.294-2.321,2.475l-6.431,26.999
	c-0.294,1.229, 0.116,2.519, 1.065,3.352l 20.852,18.319c 0.915,0.802, 2.181,1.055, 3.325,0.676c 1.15-0.379, 2.010-1.341, 2.266-2.522
	l 5.745-26.788c 0.256-1.184-0.137-2.41-1.027-3.229l-20.166-18.534C 126.218,102.666, 125.389,102.352, 124.546,102.352z M 121.911,131.56
	l 4.608-19.343l 14.445,13.278l-4.116,19.19L 121.911,131.56zM 232.062,102.352c-0.335,0-0.669,0.051-0.997,0.15c-1.157,0.355-2.041,1.294-2.321,2.475l-6.431,26.999
	c-0.294,1.229, 0.116,2.519, 1.065,3.352l 20.852,18.319c 0.915,0.802, 2.181,1.055, 3.325,0.676c 1.15-0.379, 2.010-1.341, 2.266-2.522
	l 5.745-26.788c 0.256-1.184-0.137-2.41-1.027-3.229l-20.166-18.534C 233.735,102.666, 232.905,102.352, 232.062,102.352z M 229.431,131.56
	l 4.608-19.343l 14.445,13.278l-4.116,19.19L 229.431,131.56zM 157.826,18.753c-0.335,0-0.669,0.051-0.997,0.15c-1.157,0.355-2.041,1.294-2.321,2.475l-6.431,26.999
	c-0.294,1.229, 0.116,2.519, 1.065,3.352l 20.852,18.319c 0.915,0.802, 2.181,1.055, 3.325,0.676c 1.15-0.379, 2.010-1.341, 2.266-2.522
	l 5.745-26.788c 0.256-1.184-0.137-2.41-1.027-3.229l-20.166-18.534C 159.498,19.067, 158.669,18.753, 157.826,18.753z M 155.191,47.961
	l 4.608-19.343l 14.445,13.278l-4.116,19.19L 155.191,47.961zM 339.579,102.352c-0.335,0-0.672,0.051-1,0.15c-1.161,0.355-2.041,1.294-2.321,2.475l-6.434,26.999
	c-0.294,1.229, 0.119,2.519, 1.065,3.352l 20.852,18.319c 0.915,0.802, 2.181,1.055, 3.328,0.676c 1.147-0.379, 2.010-1.341, 2.263-2.522
	l 5.745-26.788c 0.256-1.184-0.133-2.41-1.027-3.229l-20.166-18.534C 341.251,102.666, 340.419,102.352, 339.579,102.352z M 336.947,131.56
	l 4.608-19.343l 14.445,13.278l-4.116,19.19L 336.947,131.56zM 265.346,18.753c-0.335,0-0.672,0.051-1,0.15c-1.161,0.355-2.041,1.294-2.321,2.475l-6.434,26.999
	c-0.294,1.229, 0.119,2.519, 1.065,3.352l 20.852,18.319c 0.915,0.802, 2.181,1.055, 3.328,0.676c 1.147-0.379, 2.010-1.341, 2.263-2.522
	l 5.745-26.788c 0.256-1.184-0.133-2.41-1.027-3.229l-20.166-18.534C 267.018,19.067, 266.185,18.753, 265.346,18.753z M 262.714,47.961
	l 4.608-19.343l 14.445,13.278l-4.116,19.19L 262.714,47.961z" />
<glyph unicode="&#xe010;" d="M 367.92,215.467 L 394.336,192.259 C 398.445,188.655 398.445,182.784 394.336,179.18 C 392.281,177.381 389.594,176.483 386.901,176.483 C 384.208,176.483 381.515,177.394 379.464,179.197 L 339.801,213.999 C 339.299,214.443 338.859,215.467 338.476,215.467 L 273.654,215.467 L 317.43,171.643 C 318.058,171.732 318.71,171.718 319.375,171.68 L 372.023,168.23 C 377.474,167.878 382.181,163.168 382.536,157.716 C 382.897,152.262 378.764,148.135 373.313,148.49 L 338.251,150.784 L 350.044,138.994 C 354.154,134.885 354.563,128.638 350.959,125.037 C 347.358,121.436 341.111,121.846 337.005,125.952 L 325.219,137.745 L 327.523,102.687 C 327.881,97.229 323.768,93.102 318.314,93.46 C 315.587,93.638 313.081,94.901 311.18,96.806 C 309.272,98.714 308.070,101.253 307.893,103.977 L 304.572,156.621 C 304.534,157.286 304.814,157.932 304.899,158.566 L 264.533,199.441 L 264.533,148.647 C 264.533,148.265 265.039,147.828 265.482,147.316 L 299.793,107.663 C 301.595,105.609 302.561,102.919 302.561,100.229 C 302.561,97.536 301.786,94.843 299.984,92.788 C 296.383,88.689 290.802,88.689 287.194,92.788 L 264.533,119.207 L 264.533,92.006 C 264.533,86.207 259.389,81.493 254.293,81.493 C 249.201,81.493 244.053,86.207 244.053,92.006 L 244.053,119.207 L 221.327,92.788 C 217.726,88.689 212.333,88.689 208.729,92.788 C 205.124,96.894 204.995,103.561 208.599,107.66 L 243.132,147.316 C 243.575,147.831 244.053,148.268 244.053,148.654 L 244.053,205.254 L 203.687,164.376 C 203.776,163.748 204.315,163.099 204.264,162.427 L 200.82,109.786 C 200.643,107.059 199.376,104.52 197.475,102.618 C 195.57,100.714 193.027,99.447 190.304,99.27 C 184.852,98.915 180.726,103.045 181.077,108.493 L 183.375,143.558 L 164.144,124.327 C 160.041,120.218 153.788,119.805 150.187,123.409 C 146.586,127.014 146.999,133.267 151.101,137.366 L 170.332,156.6 L 135.27,154.307 C 129.819,153.952 125.693,158.082 126.044,163.533 C 126.399,168.987 131.113,173.701 136.561,174.056 L 189.198,177.507 C 189.873,177.555 190.522,177.545 191.153,177.459 L 229.123,215.463 L 178.326,215.463 C 177.944,215.463 177.507,214.443 176.995,213.999 L 137.339,179.176 C 135.287,177.377 132.594,176.48 129.905,176.48 C 127.212,176.48 124.518,177.391 122.467,179.193 C 118.364,182.794 118.364,188.648 122.467,192.256 L 148.883,215.463 L 121.685,215.463 C 115.883,215.463 111.169,218.9 111.169,223.997 C 111.169,229.089 115.883,232.53 121.685,232.53 L 148.883,232.53 L 122.467,256.273 C 118.364,259.874 118.364,266.281 122.467,269.885 C 126.57,273.49 133.236,273.329 137.339,269.725 L 176.992,234.612 C 177.507,234.168 177.944,235.947 178.33,232.533 L 229.12,232.533 L 191.153,271.155 C 190.525,271.066 189.88,271.688 189.204,271.739 L 136.567,275.18 C 133.844,275.357 131.301,276.62 129.399,278.525 C 127.495,280.429 126.228,282.972 126.051,285.696 C 125.696,291.147 129.826,295.274 135.277,294.922 L 170.336,292.625 L 151.105,311.856 C 146.999,315.959 146.582,322.212 150.187,325.813 C 153.788,329.414 160.034,329.001 164.14,324.898 L 183.361,305.667 L 181.050,340.733 C 180.695,346.18 184.794,350.307 190.242,349.955 C 195.69,349.604 200.339,344.89 200.694,339.439 L 204.008,286.802 C 204.056,286.126 203.773,285.478 203.687,284.846 L 244.057,243.968 L 244.057,308.797 C 244.057,309.183 243.514,309.623 243.070,310.122 L 208.729,349.785 C 205.124,353.891 204.995,360.55 208.599,364.657 C 212.204,368.766 217.788,368.766 221.389,364.657 L 244.053,338.244 L 244.053,354.918 C 244.053,360.728 249.201,365.435 254.293,365.435 C 259.389,365.435 264.533,360.728 264.533,354.918 L 264.533,338.244 L 287.225,364.66 C 290.83,368.77 296.192,368.77 299.793,364.66 C 301.595,362.609 302.561,359.919 302.561,357.226 C 302.561,354.533 301.786,351.84 299.984,349.788 L 265.455,310.125 C 265.011,309.627 264.533,309.183 264.533,308.801 L 264.533,249.784 L 304.903,290.662 C 304.814,291.29 304.278,291.942 304.319,292.608 L 307.77,345.252 C 308.125,350.706 312.835,355.413 318.287,355.768 C 323.741,356.127 327.868,351.997 327.509,346.545 L 325.216,311.484 L 337.009,323.273 C 341.115,327.383 347.361,327.789 350.966,324.185 C 354.567,320.584 354.154,314.334 350.048,310.228 L 338.261,298.431 L 373.316,300.711 C 378.771,301.066 382.897,296.919 382.539,291.468 C 382.365,288.744 381.102,286.164 379.194,284.259 C 377.293,282.354 374.75,281.009 372.026,280.832 L 319.379,277.221 C 318.717,277.18 318.068,276.879 317.437,276.968 L 273.654,232.53 L 338.476,232.53 C 338.862,235.943 339.302,234.086 339.801,234.53 L 379.464,269.885 C 383.57,273.49 390.229,273.329 394.332,269.725 C 398.442,266.121 398.442,259.956 394.332,256.355 L 367.92,232.533 L 384.597,232.533 C 390.407,232.533 395.114,229.093 395.114,224 C 395.114,218.904 390.407,215.467 384.597,215.467 L 367.92,215.467 Z" />
<glyph unicode="&#xe011;" d="M 405.866,295.68 C 444.041,295.68 474.979,267.107 474.972,228.915 C 474.972,190.744 441.481,162.724 403.299,162.724 L 184.289,162.441 C 184.289,162.441 128.853,158.345 91.767,165.031 C 62.573,167.038 39.496,191.29 39.496,220.993 C 39.496,245.897 55.726,266.967 78.172,274.326 C 76.493,280.286 75.534,286.495 75.534,292.987 C 75.534,331.032 106.377,361.766 144.428,361.766 C 149.33,361.766 154.109,361.025 158.713,360.049 C 172.889,395.68 207.616,420.471 248.296,420.471 C 296.95,420.471 337.073,383.546 343.685,336.725 C 348.539,338.62 353.758,338.739 359.192,338.739 C 382.979,338.739 402.606,329.813 405.62,295.68 C 405.705,295.68 405.784,295.68 405.866,295.68 ZM 317.201,127.28 C 298.247,126.792 291.308,117.228 279.289,122.228 C 263.178,130.799 90.87,137.714 77.206,111.217 C 72.11,100.693 194.256,120.071 196.605,100.871 C 198.311,87.217 102.68,101.656 114.917,88.177 C 136.67,63.826 225.734,93.686 255.147,94.15 C 269.694,94.266 379.163,97.277 383.724,104.837 C 387.734,111.787 344.76,107.24 341.088,113.807 C 337.951,120.624 324.997,127.403 317.201,127.28 ZM 291.413,74.988c-6.673,10.834, 108.605,12.742, 122.126,6.369c 4.881-2.567-5.919-6.991-15.432-7.223
	c 21.982-4.925, 63.010-0.406, 59.87-5.734C 453.881,61.437, 318.693,48.527, 291.413,74.988M 295.581,33.201c-2.307-5.048-84.528-17.060-94.426-14.326c-9.895,2.72-1.519,12.571, 10.004,13.978
	c-6.332,8.322-56.105,4.922-54.596,12.937c 2.632,9.52, 26.593,3.151, 33.44,6.301C 222.3,67.004, 301.466,52.197, 295.581,33.201" />
<glyph unicode="&#xe012;" d="M 290.574,141.855 C 298.704,138.615 293.751,107.035 290.502,98.905 C 287.259,90.771 278.043,86.811 269.913,90.054 C 261.779,93.297 257.816,102.519 261.062,110.65 C 264.308,118.777 282.44,145.097 290.574,141.855 ZM 205.783,141.855 C 213.914,138.615 208.961,107.035 205.715,98.905 C 202.472,90.771 193.253,86.811 185.122,90.054 C 176.988,93.297 173.029,102.519 176.271,110.65 C 179.514,118.777 197.652,145.097 205.783,141.855 ZM 231.219,74.025 C 239.35,70.779 234.397,39.202 231.148,31.075 C 227.908,22.944 218.685,18.982 210.555,22.221 C 202.424,25.467 198.461,34.69 201.708,42.817 C 204.95,50.947 223.092,77.268 231.219,74.025 ZM 404.623,305.92 C 442.798,305.92 473.74,275.070 473.733,236.892 C 473.733,198.717 440.241,168.424 402.060,168.424 L 183.050,168.148 C 183.050,168.148 127.614,164.048 90.528,170.728 C 61.334,172.742 38.257,196.997 38.257,226.7 C 38.257,251.607 54.484,272.684 76.933,280.047 C 75.254,286.007 74.295,292.25 74.295,298.745 C 74.295,336.794 105.141,367.599 143.186,367.599 C 148.091,367.599 152.866,366.991 157.474,366.022 C 171.646,401.65 206.374,426.728 247.060,426.728 C 295.707,426.728 335.831,390.376 342.446,343.555 C 347.3,345.443 352.515,346.706 357.946,346.706 C 381.737,346.706 401.36,329.813 404.378,305.92 C 404.463,305.92 404.541,305.92 404.623,305.92 Z" />
<glyph unicode="&#xe013;" d="M 326.414,106.015 C 334.544,102.772 329.591,71.195 326.342,63.068 C 323.099,54.934 313.883,50.975 305.753,54.214 C 297.619,57.457 293.656,66.679 296.902,74.81 C 300.148,82.937 318.28,109.257 326.414,106.015 ZM 241.623,106.015 C 249.754,102.772 244.801,71.195 241.555,63.068 C 238.312,54.934 229.093,50.975 220.962,54.214 C 212.828,57.457 208.869,66.679 212.111,74.81 C 215.354,82.937 233.492,109.257 241.623,106.015 ZM 267.059,38.185 C 275.19,34.939 270.237,3.362 266.988-4.765 C 263.748-12.899 254.525-16.858 246.395-13.619 C 238.264-10.373 234.301-1.154 237.548,6.973 C 240.79,15.107 258.932,41.428 267.059,38.185 ZM 132.669,378.054c-3.441-3.441-9.025-3.441-12.465,0.010l-29.696,29.689c-3.434,3.441-3.441,9.018,0,12.462
					c 3.434,3.437, 9.025,3.434, 12.465-0.003l 29.686-29.693C 136.11,387.075, 136.11,381.498, 132.669,378.054zM 309.19,407.757l-29.696-29.696c-3.441-3.444-9.028-3.451-12.455-0.014c-3.451,3.451-3.451,9.028,0,12.469
					l 29.699,29.696c 3.43,3.434, 9.004,3.444, 12.452-0.003C 312.624,416.771, 312.624,411.194, 309.19,407.757zM 206.077,408.463c-1.594-1.601-3.799-2.567-6.229-2.57c-4.871,0.003-8.817,3.942-8.817,8.806l0,41.134
					c0,4.864, 3.946,8.806, 8.817,8.813c 4.864,0, 8.813-3.946, 8.806-8.81l0-41.137 C 208.64,412.262, 207.677,410.057, 206.077,408.463zM 102.253,304.65c-1.591-1.597-3.799-2.577-6.226-2.577L 54.883,302.073 c-4.864-0.003-8.803,3.942-8.803,8.81
					c0,4.857, 3.939,8.8, 8.803,8.806l 41.134,0.007c 4.871,0, 8.813-3.942, 8.823-8.813C 104.827,308.453, 103.854,306.244, 102.253,304.65zM 193.522,307.101 C 168.81,307.101 148.081,289.922 142.534,266.871 C 122.402,295.27 124.979,334.848 150.426,360.294 C 178.842,388.707 224.908,388.7 253.314,360.294 C 256.628,356.98 259.519,353.403 262.065,349.662 C 235.663,347.471 212.681,331.093 201.929,306.47 C 199.287,306.876 196.468,307.101 193.522,307.101 ZM 409.552,246.825 C 440.474,246.825 465.538,220.262 465.538,189.334 C 465.538,158.406 438.402,132.287 407.463,132.287 L 230.035,132.072 C 230.035,132.072 185.119,128.754 155.071,134.168 C 131.427,135.793 112.725,155.453 112.725,179.517 C 112.725,199.694 125.877,216.788 144.060,222.747 C 142.705,227.574 141.926,232.656 141.926,237.92 C 141.926,268.745 166.915,293.751 197.734,293.751 C 201.708,293.751 205.588,293.359 209.316,292.57 C 220.795,321.437 248.924,341.951 281.887,341.951 C 321.307,341.951 353.816,312.89 359.168,274.958 C 363.11,276.494 367.322,278.299 371.729,278.299 C 391.004,278.299 406.897,267.305 409.344,246.825 C 409.419,246.825 409.484,246.825 409.552,246.825 Z" />
<glyph unicode="&#xe014;" d="M 457.411,223.556c 1.683,5.96, 2.639,12.223, 2.639,18.715c0,38.048-30.843,68.898-68.891,68.898
			c-4.905,0-9.677-0.515-14.285-1.488c-14.176,35.632-48.903,60.88-89.586,60.88c-41.308,0-76.455-25.962-90.177-62.461
			c 40.994-0.631, 76.483-29.836, 86.036-69.745c 0.594,0.014, 1.171,0.017, 1.737,0.017l 4.588-0.044c 21.473,0, 41.813-4.775, 46.858-37.765
			c 34.461-3.379, 59.467-29.553, 59.467-63.515c0-9.588-2.266-18.579-6.25-26.651c 17.35,0.003, 37.649,0.829, 54.272,3.826
			c 29.194,2.010, 52.265,26.276, 52.265,55.979C 496.087,195.106, 479.857,216.194, 457.411,223.556zM 325.495,189.867 C 357.758,189.867 383.904,166.318 383.898,134.045 C 383.898,101.786 355.601,78.725 323.338,78.725 L 138.26,78.49 C 138.26,78.49 91.419,75.018 60.078,80.664 C 35.403,82.364 15.91,102.84 15.91,127.942 C 15.91,148.989 29.617,166.782 48.585,173.008 C 47.169,178.039 46.356,183.286 46.356,188.778 C 46.356,220.928 72.421,246.883 104.578,246.883 C 108.718,246.883 112.749,246.207 116.651,245.385 C 128.628,275.5 157.972,296.373 192.352,296.373 C 233.462,296.373 267.366,265.018 272.954,225.444 C 277.050,227.055 281.463,226.854 286.058,226.854 C 306.156,226.854 322.741,224 325.297,189.867 C 325.369,189.867 325.424,189.867 325.495,189.867 Z" />
<glyph unicode="&#xe015;" d="M 141.851,293.038c-3.884-3.884-10.179-3.884-14.063,0.010L 82.732,338.094c-3.874,3.884-3.881,10.175,0,14.060
				c 3.874,3.884, 10.179,3.874, 14.063,0l 45.042-45.049C 145.729,303.213, 145.729,296.922, 141.851,293.038zM 352.539,338.097l-45.056-45.053c-3.878-3.884-10.179-3.895-14.049-0.010c-3.895,3.891-3.895,10.182,0,14.066
				l 45.056,45.053c 3.871,3.874, 10.161,3.888, 14.049,0C 356.413,348.269, 356.413,341.975, 352.539,338.097zM 224.659,327.342c-1.799-1.806-4.287-2.898-7.028-2.905c-5.492,0.003-9.943,4.448-9.943,9.936
				l-0.003,63.713c 0.003,5.485, 4.454,9.933, 9.946,9.943c 5.485,0, 9.943-4.451, 9.933-9.94l0-63.717 
				C 227.557,331.629, 226.468,329.141, 224.659,327.342zM 107.534,210.227c-1.792-1.802-4.287-2.908-7.025-2.908L 36.796,207.319 c-5.485-0.003-9.929,4.448-9.929,9.94
				c0,5.482, 4.444,9.929, 9.929,9.933l 63.703,0.007c 5.495,0, 9.94-4.448, 9.953-9.943C 110.438,214.518, 109.339,212.026, 107.534,210.227zM 210.5,212.992 C 182.62,212.992 159.235,193.615 152.979,167.612 C 130.263,199.646 133.175,244.292 161.881,273.002 C 193.939,305.056 245.903,305.050 277.951,273.002 C 281.692,269.261 284.952,265.226 287.823,261.007 C 258.041,258.536 232.117,240.060 219.986,212.279 C 217.003,212.736 213.825,212.992 210.5,212.992 ZM 429.141,155.733 C 460.059,155.733 485.134,129.167 485.123,98.236 C 485.123,67.308 457.984,41.192 427.049,41.192 L 249.62,40.974 C 249.62,40.974 204.704,37.656 174.657,43.073 C 151.013,44.698 132.311,64.362 132.311,88.422 C 132.311,108.602 145.463,125.693 163.645,131.656 C 162.29,136.482 161.512,141.561 161.512,146.825 C 161.512,177.654 186.501,202.66 217.32,202.66 C 221.293,202.66 225.174,202.267 228.902,201.479 C 240.384,230.345 268.513,250.86 301.476,250.86 C 340.896,250.86 373.405,221.802 378.757,183.869 C 382.7,185.402 386.912,187.208 391.318,187.208 C 410.593,187.208 426.486,176.213 428.933,155.733 C 429.008,155.733 429.073,155.733 429.141,155.733 Z" />
<glyph unicode="&#xe016;" d="M 404.623,234.24 C 442.798,234.24 473.74,202.779 473.73,164.598 C 473.73,126.43 440.238,95.519 402.057,95.519 L 183.047,95.242 C 183.047,95.242 127.611,91.146 90.525,97.826 C 61.331,99.84 38.253,124.099 38.253,153.798 C 38.253,178.705 54.484,199.796 76.93,207.155 C 75.25,213.115 74.291,219.368 74.291,225.86 C 74.291,263.909 105.134,294.735 143.186,294.735 C 148.087,294.735 152.866,294.168 157.471,293.192 C 171.646,328.827 206.374,353.973 247.054,353.973 C 295.707,353.973 335.831,317.775 342.446,270.954 C 347.3,272.845 352.519,274.415 357.949,274.415 C 381.737,274.415 401.364,258.133 404.378,234.24 C 404.466,234.24 404.541,234.24 404.623,234.24 Z" />
<glyph unicode="&#xe017;" d="M 13.974,35.847 C 12.82,71.666 14.667,113.275 19.862,121.385 C 27.204,132.837 52.924,142.817 80.159,153.395 C 88.709,156.713 97.556,160.154 106.38,163.823 C 145.684,180.193 155.904,186.194 156.938,186.822 L 162.225,190.037 L 162.645,234.278 L 162.471,239.667 L 158.512,243.029 C 158.396,243.132 146.937,253.187 143.104,282.979 L 141.455,295.851 L 130.301,292.618 C 127.665,294.537 123.805,301.377 123.61,304.831 C 123.228,310.845 124.358,318.375 125.727,321.997 L 138.199,319.372 L 136.137,334.947 C 134.424,347.904 132.229,366.063 133.011,374.125 C 135.523,400.039 161.724,426.848 201.219,426.848 C 240.722,426.848 266.923,400.039 269.425,374.153 C 270.189,366.032 267.998,347.887 266.284,334.947 L 263.506,319.3 L 276.664,322.072 C 278.057,318.481 279.207,310.876 278.825,304.777 C 278.62,301.384 274.77,294.547 272.142,292.622 L 260.997,295.854 L 259.342,282.982 C 255.515,253.303 244.115,243.207 244.125,243.207 L 244.125,243.207 L 239.729,239.828 L 240.203,190.041 L 245.48,186.825 C 246.511,186.201 256.724,180.19 296.045,163.82 C 304.876,160.137 313.733,156.706 322.29,153.375 C 349.508,142.804 375.228,132.823 382.553,121.395 C 387.748,113.278 389.601,71.68 388.458,35.847 C 380.385,31.607 343.921,18.528 201.223,18.528 C 58.505,18.528 22.036,31.607 13.974,35.847 ZM 488.885,140.681 C 498.749,125.259 495.797,51.248 495.797,51.248 C 495.797,51.248 492.646,38.519 410.597,32.604 C 411.389,54.446 412.532,115.814 401.278,133.39 C 390.035,150.944 362.37,161.673 330.329,174.107 C 321.935,177.367 313.248,180.736 304.582,184.351 C 281.788,193.85 269.332,199.619 262.943,202.766 C 265.23,203.936 266.076,204.452 266.076,204.452 L 266.373,235.564 C 271.179,242.777 276.794,254.31 280.064,271.735 C 292.379,276.92 300.442,293.639 301.018,303.425 C 301.080,304.418 302.442,327.84 292.035,338.927 C 291.246,339.77 290.396,340.528 289.498,341.204 C 291.598,358.557 292.215,369.285 291.56,376.265 C 290.147,390.833 283.488,405.565 272.65,417.959 C 283.686,424.185 297.056,428.066 312.395,428.066 C 355.185,428.066 383.027,398.203 385.765,369.978 C 386.499,362.22 384.963,347.583 382.816,331.383 C 393.295,333.592 394.988,312.013 394.482,304.217 C 394.011,296.175 384.986,280.846 376.392,283.337 C 372.125,250.221 358.373,239.677 358.373,239.677 L 358.714,204.448 C 358.714,204.448 367.404,199.165 404.105,183.887 C 440.788,168.608 477.853,157.884 488.885,140.681 Z" />
<glyph unicode="&#xe018;" d="M 473.617,389.291L 34.741,389.291 c-8.499,0-15.398-6.902-15.398-15.398l0-315.679 c0-8.499, 6.898-15.401, 15.398-15.401l 438.876,0 
	c 8.496,0, 15.404,6.898, 15.404,15.401L 489.021,373.893 C 489.021,382.389, 482.113,389.291, 473.617,389.291z M 435.121,81.312L 56.559,81.312 l0,269.483 l 378.563,0 
	L 435.121,81.312 z M 463.555,202.38c-7.554-0.102-13.752,5.926-13.865,13.476c-0.102,7.55, 5.915,13.752, 13.462,13.858
	c 7.554,0.106, 13.752-5.919, 13.865-13.466C 477.119,208.701, 471.101,202.493, 463.555,202.38z" />
<glyph unicode="&#xe019;" d="M 416.532,384.529C 373.654,427.411, 316.641,451.028, 256,451.028c-60.641,0-117.654-23.617-160.532-66.495
	C 52.586,341.654, 28.972,284.641, 28.972,224s 23.613-117.654, 66.495-160.532s 99.891-66.492, 160.532-66.492c 60.641,0, 117.654,23.613, 160.532,66.492
	s 66.492,99.895, 66.492,160.532S 459.414,341.654, 416.532,384.529z M 103.417,86.767C 70.653,123.16, 50.678,171.291, 50.678,224
	s 19.975,100.837, 52.739,137.233l 44.080-44.080c-21.538-25.047-34.574-57.607-34.574-93.157c0-35.546, 13.036-68.103, 34.57-93.153
	L 103.417,86.767z M 256,102.629c-66.922,0-121.371,54.446-121.371,121.368c0,66.925, 54.446,121.371, 121.371,121.371
	c 66.922,0, 121.368-54.443, 121.368-121.371C 377.368,157.078, 322.918,102.629, 256,102.629z M 408.579,86.767l-44.076,44.076
	c 21.538,25.050, 34.57,57.607, 34.57,93.153c0,35.55-13.032,68.11-34.57,93.157l 44.076,44.080
	c 32.768-36.393, 52.739-84.524, 52.739-137.233S 441.347,123.16, 408.579,86.767z" />
<glyph unicode="&#xe01a;" d="M 361.161,220.081 C 361.161,163.202 315.044,117.071 258.161,117.071 C 201.267,117.071 155.163,163.209 155.163,220.081 C 155.163,276.934 201.274,323.058 258.161,323.058 C 315.044,323.058 361.161,276.927 361.161,220.081 ZM 258.161,358.615c-6.888,0-12.472,5.581-12.472,12.469L 245.688,451.034 c0,6.888, 5.584,12.469, 12.472,12.469
				c 6.874,0, 12.455-5.581, 12.455-12.469l0-79.951 C 270.626,364.196, 265.039,358.615, 258.161,358.615zM 258.161-15.268c-6.888,0-12.472,5.577-12.472,12.465l0,79.954 c0,6.878, 5.584,12.462, 12.472,12.462
				c 6.874,0, 12.455-5.591, 12.455-12.462l0-79.954 C 270.626-9.69, 265.039-15.268, 258.161-15.268zM 485.072,211.647l-79.954,0 c-6.874,0-12.469,5.588-12.469,12.462c0,6.898, 5.601,12.472, 12.469,12.472l 79.954,0 
				c 6.898,0, 12.479-5.574, 12.479-12.472C 497.562,217.235, 491.971,211.647, 485.072,211.647zM 111.186,211.647L 31.235,211.647 c-6.881,0-12.476,5.588-12.476,12.462c0,6.898, 5.594,12.472, 12.476,12.472l 79.947,0 
				c 6.885,0, 12.476-5.574, 12.476-12.472C 123.665,217.235, 118.077,211.647, 111.186,211.647zM 362.069,315.566c-3.185,0-6.38,1.236-8.817,3.656c-4.867,4.874-4.867,12.769,0,17.644l 56.532,56.532
				c 4.874,4.85, 12.759,4.85, 17.633,0c 4.881-4.867, 4.881-12.762,0-17.64L 370.893,319.222C 368.452,316.802, 365.268,315.566, 362.069,315.566zM 97.703,51.197c-3.198,0-6.38,1.208-8.82,3.656c-4.867,4.861-4.867,12.766,0,17.644l 56.542,56.518
				c 4.867,4.861, 12.756,4.861, 17.63,0c 4.867-4.864, 4.867-12.766,0-17.647l-56.532-56.515C 104.093,52.408, 100.895,51.197, 97.703,51.197zM 154.235,315.576c-3.198,0-6.38,1.225-8.813,3.656L 88.88,375.77c-4.867,4.867-4.867,12.762,0,17.637
				c 4.874,4.85, 12.762,4.85, 17.64,0l 56.532-56.521c 4.867-4.874, 4.867-12.776,0-17.654C 160.618,316.802, 157.433,315.576, 154.235,315.576zM 418.608,51.197c-3.198,0-6.386,1.208-8.82,3.656l-56.532,56.532c-4.874,4.895-4.874,12.762,0,17.64
				c 4.874,4.881, 12.759,4.881, 17.637,0l 56.532-56.532c 4.874-4.878, 4.874-12.78,0-17.644C 424.987,52.408, 421.786,51.197, 418.608,51.197z
				" />
<glyph unicode="&#xe01b;" d="M 226.14,467.241L 292.4,467.241L 292.4,267.421L 226.14,267.421zM 330.264,423.407 C 419.403,392.55 483.594,307.835 483.574,208.333 C 483.574,82.845 381.501-19.244 255.997-19.244 C 130.516-19.244 28.423,82.845 28.423,208.333 C 28.423,306.732 91.208,390.717 178.797,422.4 L 178.797,350.73 C 128.335,323.26 94,269.735 94,208.333 C 94,118.996 166.68,46.336 256.017,46.336 C 345.354,46.336 418.031,118.996 418.031,208.333 C 418.031,270.896 382.321,325.185 330.264,352.164 L 330.264,423.407 Z" />
<glyph unicode="&#xe01c;" d="M 338.019,81.135L 170.359,81.135 L 170.359,350.601 l 167.66,0 L 338.019,81.135 z M 324.506,407.975L 183.88,407.975 c-14.616,0-26.491-11.858-26.491-26.477l0-330.899 
	c0-14.599, 11.875-26.474, 26.491-26.474L 324.506,24.125 c 14.612,0, 26.464,11.875, 26.464,26.474L 350.969,381.498 C 350.969,396.117, 339.121,407.975, 324.506,407.975" />
<glyph unicode="&#xe01d;" d="M 100.768,207.51 C 74.933,207.51 53.992,228.458 53.992,254.273 C 53.992,280.112 74.929,301.056 100.768,301.056 C 126.59,301.056 147.541,280.115 147.541,254.273 C 147.541,228.454 126.587,207.503 100.768,207.51 ZM 499.743,194.543 L 499.743,194.543 L 499.75,187.276 L 499.75,143.695 L 499.75,92.849 L 463.428,92.849 L 463.428,143.695 L 42.121,143.695 L 42.121,92.849 L 13.063,92.849 L 13.063,143.695 L 13.063,194.543 L 13.063,354.348 L 42.121,354.348 L 42.121,194.543 L 163.178,194.543 C 162.881,194.543 158.341,220.761 158.341,245.948 L 158.341,248.323 C 158.341,273.493 169.168,312.163 201.537,308.296 L 452.97,272.288 C 477.764,266.895 499.739,251.901 499.739,226.734 L 499.743,224.348 C 499.743,199.178 499.743,194.543 499.743,194.543 Z" />
<glyph unicode="&#xe01e;" d="M 477.092,260.4l-22.047,0 c-10.121,0-20.852,7.878-23.893,17.551l-12.66,30.822c-4.765,8.892-2.789,22.047, 4.301,29.177l 15.712,15.647
	c 7.158,7.195, 7.158,18.906,0,26.037l-26.074,26.016c-7.151,7.134-18.825,7.134-25.989,0l-15.715-15.626c-7.086-7.165-20.272-9.114-29.194-4.321
	l-30.754,12.619c-9.639,3.014-17.565,13.732-17.565,23.866l0,22.088 c0,10.1-8.301,18.391-18.408,18.391L 238.032,462.667 c-10.141,0-18.432-8.298-18.432-18.391
	l0-22.088 c0-10.134-7.854-20.849-17.521-23.866l-30.792-12.619c-8.946-4.792-22.043-2.867-29.208,4.321l-15.701,15.626
	c-7.151,7.134-18.825,7.134-25.962,0l-26.010-26.016c-7.182-7.134-7.182-18.845,0-26.027l 15.602-15.66c 7.178-7.127, 9.148-20.282, 4.314-29.177
	l-12.653-30.829c-3.038-9.67-13.698-17.606-23.846-17.606l-22.074,0.058c-10.121,0-18.415-8.284-18.415-18.401l0-36.762 
	c0-10.131, 8.294-18.412, 18.415-18.412l 22.074,0 c 10.151-0.048, 20.808-7.953, 23.815-17.609l 12.684-30.758c 4.803-8.96, 2.864-22.139-4.314-29.245
	l-15.633-15.63c-7.144-7.188-7.144-18.876,0-26.030l 26.044-26.033c 7.137-7.154, 18.811-7.154, 25.969,0l 15.698,15.643
	c 7.12,7.144, 20.258,9.103, 29.126,4.297l 30.874-12.704c 9.66-2.99, 17.514-13.718, 17.514-23.835l0-22.013 c0-10.1, 8.298-18.377, 18.429-18.377
	l 36.792,0 c 10.114,0, 18.412,8.291, 18.412,18.377l0,22.013 c0,10.121, 7.909,20.845, 17.558,23.835l 30.85,12.704c 8.885,4.806, 22.060,2.854, 29.198-4.297
	l 15.619-15.643c 7.182-7.154, 18.835-7.154, 25.986,0l 26.074,26.033c 7.154,7.154, 7.154,18.842,0,26.030l-15.715,15.63
	c-7.089,7.086-9.059,20.285-4.297,29.245l 12.674,30.758c 3.024,9.656, 13.824,17.565, 23.873,17.565l 22.047,0 c 10.151,0, 18.381,8.294, 18.381,18.408
	L 495.479,241.995 C 495.469,252.119, 487.24,260.4, 477.092,260.4 M 348.43,223.625c0-50.807-41.175-91.938-91.942-91.938
	c-50.845,0-92.006,41.131-92.006,91.938c0,50.78, 41.161,91.945, 92.006,91.945C 307.255,315.566, 348.43,274.405, 348.43,223.625" />
<glyph unicode="&#xe01f;" d="M 256.393,358.298 C 297.67,358.298 331.23,324.721 331.23,283.46 C 331.23,242.176 297.67,208.63 256.393,208.63 C 215.129,208.63 181.562,242.173 181.562,283.46 C 181.562,324.724 215.129,358.298 256.393,358.298 ZM 406.050,283.457c0,10.063-1.068,19.818-2.942,29.324l 24.105,26.184l-35.273,7.11c-8.288,17.821-19.893,33.686-34.14,46.851
			l 4.168,35.837l-33.055-15.128c-16.592,9.264-34.953,15.326-54.661,17.664l-17.869,31.761l-17.848-31.761
			c-19.698-2.342-38.065-8.4-54.665-17.664l-33.051,15.128l 4.181-35.837c-14.247-13.165-25.887-29.030-34.147-46.851l-35.273-7.11
			l 24.108-26.184c-1.891-9.499-2.946-19.261-2.946-29.324c0-10.063, 1.065-19.831, 2.946-29.327l-24.108-26.187l 35.273-7.11
			c 8.26-17.821, 19.9-33.659, 34.147-46.862l 4.867-4.267l-23.207-185.569l 119.733,119.719l 119.736-119.719l-23.2,185.569l 4.895,4.267
			c 14.22,13.199, 25.839,29.044, 34.12,46.862l 35.28,7.11l-24.102,26.187C 404.999,263.629, 406.050,273.405, 406.050,283.457z M 256.393,178.695
			c-57.754,0-104.759,47.012-104.759,104.765c0,57.743, 47.005,104.769, 104.759,104.769c 57.764,0, 104.779-47.025, 104.779-104.769
			C 361.172,225.707, 314.156,178.695, 256.393,178.695z" />
<glyph unicode="&#xe020;" d="M 488.721,67.615 L 488.721,47.701 L 402.425,47.701 L 342.692,47.701 L 269.677,47.701 L 216.576,47.701 L 143.565,47.701 L 83.825,47.701 L 24.088,47.701 L 24.088,67.615 L 83.825,67.615 L 83.825,280.016 L 143.565,280.016 L 143.565,67.615 L 216.576,67.615 L 216.576,399.493 L 269.677,399.493 L 269.677,67.615 L 342.692,67.615 L 342.692,333.117 L 402.425,333.117 L 402.425,67.615 Z" />
<glyph unicode="&#xe021;" d="M 512,149.859 L 329.865,149.859 L 329.865-32.007 L 182.156-32.007 L 182.156,149.859 L 0,149.859 L 0,298.144 L 182.156,298.144 L 182.156,480.007 L 329.865,480.007 L 329.865,298.144 L 512,298.144 Z" />
<glyph unicode="&#xe022;" d="M 136.8,427.093 C 182.849,403.48 200.561,304.292 200.564,304.295 L 149.791,255.884 C 219.453,149.613 285.577,127.177 285.577,127.177 L 331.629,161.42 C 417.823,146.067 455.605,118.914 455.605,118.914 C 468.596,31.532 358.786,20.907 358.786,20.907 C 86.026,71.68 55.327,299.568 55.327,349.16 C 55.327,398.756 136.8,427.093 136.8,427.093 Z" />
<glyph unicode="&#xe023;" d="M 472.716,115.5 C 484.82,96.597 481.215,5.888 481.215,5.888 C 481.215,5.888 474.877-20.596 256.416-20.596 C 37.936-20.596 31.607,5.888 31.607,5.888 C 31.607,5.888 27.972,96.597 40.090,115.5 C 53.61,136.602 99.014,149.746 143.985,168.468 C 188.966,187.211 199.636,193.696 199.636,193.696 L 200.045,236.875 C 200.045,236.875 183.204,249.798 177.985,290.386 C 167.434,287.331 156.355,306.125 155.791,315.983 C 155.187,325.533 157.222,351.997 170.076,349.29 C 167.455,369.138 165.564,387.072 166.489,396.595 C 169.837,431.186 203.953,467.797 256.406,467.797 C 308.859,467.797 342.992,431.186 346.334,396.595 C 347.228,387.075 345.347,369.138 342.716,349.29 C 355.557,351.997 357.629,325.533 357.021,315.983 C 356.444,306.121 345.375,287.331 334.841,290.386 C 329.605,249.801 312.747,236.875 312.747,236.875 L 313.167,193.696 C 313.167,193.696 323.809,187.208 368.811,168.468 C 413.764,149.74 459.199,136.602 472.716,115.5 Z" />
<glyph unicode="&#xe024;" d="M 256.403,455.844C 128.341,455.844, 24.156,351.679, 24.156,223.597c0-128.058, 104.185-232.247, 232.247-232.247
	c 128.065,0, 232.247,104.189, 232.247,232.247C 488.649,351.679, 384.468,455.844, 256.403,455.844z M 256.403,388.932
	c 33.939,0, 65.509-10.288, 91.788-27.894l-229.222-229.226c-17.609,26.276-27.897,57.849-27.897,91.785C 91.068,314.774, 165.239,388.932, 256.403,388.932z
	 M 256.403,58.266c-33.075,0-63.891,9.8-89.76,26.597l 228.495,228.495c 16.794-25.873, 26.593-56.682, 26.593-89.76
	C 421.734,132.424, 347.576,58.266, 256.403,58.266z" />
<glyph unicode="&#xe025;" d="M 0.007,307.381L 511.993,307.381L 511.993,140.623L 0.007,140.623z" />
<glyph unicode="&#xe026;" d="M 256.403,466.797c-134.103,0-243.197-109.094-243.197-243.2c0-134.11, 109.094-243.2, 243.197-243.2c 134.083,0, 243.197,109.090, 243.2,243.2
	C 499.603,357.704, 390.509,466.797, 256.403,466.797z M 256.403,34.441L 256.403,412.754 c 104.305,0, 189.153-84.859, 189.153-189.157
	C 445.556,119.299, 360.707,34.441, 256.403,34.441z" />
<glyph unicode="&#xe027;" d="M 490.216,252.034 L 490.216,195.161 L 342.258,195.161 C 330.336,159.147 296.414,133.154 256.403,133.154 C 216.388,133.154 182.47,159.147 170.547,195.161 L 22.589,195.161 L 22.589,252.034 L 170.547,252.034 C 182.47,288.048 216.392,314.040 256.403,314.040 C 296.414,314.040 330.336,288.048 342.258,252.034 L 490.216,252.034 Z" />
<glyph unicode="&#xe028;" d="M 313.948,337.971 L 284.45,308.477 L 284.45,336.282 C 284.45,346.573 288.959,354.895 299.257,354.895 C 308.961,354.895 313.467,347.45 313.948,337.971 ZM 274.586,298.602 L 244.999,269.015 L 244.999,375.992 C 244.999,386.28 249.504,394.602 259.792,394.602 C 270.073,394.602 274.586,386.28 274.586,375.992 L 274.586,298.602 ZM 314.040,282.272 L 284.45,252.682 L 284.45,280.576 L 314.040,310.166 ZM 274.586,270.708 L 274.586,242.825 L 163.782,132.014 C 160.703,138.694 158.512,145.872 157.324,153.463 L 274.586,270.708 ZM 235.138,259.151 L 205.548,229.557 L 205.548,356.147 C 205.548,366.415 210.046,374.76 220.341,374.76 C 230.618,374.76 235.138,366.415 235.138,356.147 L 235.138,259.151 ZM 372.152,234.295 C 377.521,234.295 382.747,232.462 386.365,228.823 C 393.639,221.563 393.274,209.743 386.010,202.482 L 299.708,119.166 L 300.308,120.166 C 300.308,120.166 299.196,119.904 298.435,119.166 C 283.983,100.209 258.393,87.788 232.704,87.788 C 208.872,87.788 188.337,98.28 174.548,114.876 L 314.040,254.372 L 314.040,238.254 L 314.040,224.601 L 314.040,191.372 L 355.871,228.844 C 359.479,232.486 366.821,234.295 372.152,234.295 ZM 195.686,219.696 L 162,186.013 L 161.847,308.982 C 161.847,317.723 167.393,328.673 176.476,328.673 C 186.733,328.673 195.686,319.266 195.686,308.982 L 195.686,219.696 ZM 400.78,396.902L 414.727,382.956L 93.273,61.501L 79.326,75.448z" />
<glyph unicode="&#xe029;" d="M 391.325,246.409 L 371.77,226 L 248.538,324.628 L 125.317,226.273 L 107.459,247.095 L 248.511,361.25 L 248.579,361.25 L 299.418,322.932 L 299.418,337.442 L 341.053,337.442 L 341.053,288.113 ZM 361.288,86.907 L 367.551,86.907 L 367.551,192.379 C 367.551,200.271 372.18,206.681 380.075,206.681 C 387.977,206.681 392.615,200.271 392.615,192.379 L 392.615,107.964 C 392.615,107.964 392.615,107.906 398.879,107.807 L 398.879,207.64 C 398.879,215.549 403.511,221.938 411.419,221.938 C 419.325,221.938 423.963,215.549 423.963,207.64 L 423.963,105.694 L 430.24,105.694 L 430.24,177.101 C 430.24,185.009 434.872,191.406 442.764,191.406 C 450.673,191.406 455.301,185.009 455.301,177.101 L 455.301,101.762 L 455.301,91.269 L 455.301,65.731 L 485.915,94.525 C 491.489,100.123 502.316,100.123 507.914,94.525 C 513.495,88.945 513.297,79.865 507.709,74.264 L 441.542,10.237 C 443.296,11.936 441.542,10.237 441.542,10.237 C 430.432-4.352 412.088-13.889 392.359-13.889 C 358.775-13.889 336.22,13.090 336.22,46.671 L 336.22,69.332 L 336.22,156.129 C 336.22,164.028 341.231,171.264 349.123,171.264 C 357.031,171.264 361.288,164.024 361.288,156.129 L 361.288,86.907 ZM 327.031,29.256 C 328.813,20.719 331.899,12.855 336.152,5.915 C 310.907-3.379 283.658-8.506 255.229-8.506 C 125.549-8.506 20.026,97 20.026,226.703 C 20.026,356.376 125.549,461.892 255.229,461.892 C 384.922,461.892 490.417,356.376 490.417,226.703 C 490.417,189.583 481.659,154.505 466.268,123.269 L 466.268,176.449 C 466.268,182.047 464.804,187.040 462.254,191.095 C 464.247,202.687 465.398,214.552 465.398,226.703 C 465.398,342.589 371.118,436.873 255.229,436.873 C 139.346,436.873 45.049,342.593 45.049,226.703 C 45.049,110.804 139.346,16.521 255.229,16.521 C 280.453,16.521 304.613,21.060 327.031,29.256 ZM 325.257,126.092 L 275.613,125.665 L 275.613,200.588 L 222.061,200.588 L 222.061,125.72 L 147.668,126.321 L 149.374,230.95 L 248.88,312.009 L 349.812,230.946 L 350.563,181.443 C 350.085,181.47 349.621,181.569 349.129,181.569 C 335.746,181.569 325.257,170.103 325.257,155.471 L 325.257,126.092 Z" />
<glyph unicode="&#xe02a;" d="M 436.47,249.395l-33.819,0 L 402.65,324.792 c0,82.176-66.376,149.033-147.971,149.033c-81.596,0-147.978-65.908-147.978-146.917
	L 106.701,249.395 l-25.368,0 c-9.329,0-16.913-7.574-16.913-16.91l0-228.301 c0-9.329, 7.581-16.913, 16.913-16.913l 355.133,0 c 9.332,0, 16.916,7.584, 16.916,16.913
	L 453.383,232.486 C 453.386,241.821, 445.802,249.395, 436.47,249.395z M 287.089,83.091c0-24.904-12.619-45.083-28.184-45.083
	c-15.572,0-28.184,20.18-28.184,45.083c0,16.022, 5.233,30.058, 13.1,38.055c-7.868,8.001-13.1,22.026-13.1,38.048
	c0,24.9, 12.616,45.104, 28.184,45.104c 15.565,0, 28.184-20.204, 28.184-45.104c0-16.022-5.236-30.051-13.104-38.048
	C 281.853,113.145, 287.089,99.113, 287.089,83.091z M 343.463,249.395L 165.895,249.395 L 165.895,326.905 c0,48.374, 39.83,87.729, 88.788,87.729
	c 48.954,0, 88.784-40.305, 88.784-89.842L 343.467,249.395 z" />
<glyph unicode="&#xe02b;" d="M 366.141,233.649 L 490.332,110.858 L 490.387,73.503 C 490.387,62.723 481.085,53.985 469.586,54.023 L 41.895,53.337 C 30.433,53.279 21.060,62.003 21.060,72.779 L 20.954,110.189 L 144.777,233.308 L 255.601,148.975 L 366.141,233.649 ZM 469.084,391.779l-427.691-0.631c-11.5-0.017-20.818-8.755-20.797-19.538l0-8.339 
				l 234.95-178.842l 234.377,179.528l0,8.359 C 489.919,383.113, 480.567,391.817, 469.084,391.779M 20.883,156.266 L 20.668,327.772 L 118.487,253.314 ZM 489.994,328.475 L 490.243,156.989 L 392.387,253.71 Z" />
<glyph unicode="&#xe02c;" d="M 298.783,45.165 L 274.678,46.732 C 270.807,95.703 297.219,120.569 297.219,120.569 C 451.178,270.633 444.17,307.954 444.17,307.954 C 395.964,256.645 289.451,164.127 289.451,164.127 C 243.586,249.638 333.773,289.283 333.773,289.283 C 475.276,363.933 498.589,402.026 498.589,402.026 C 487.711,24.163 312.774,108.138 312.774,108.138 C 296.445,77.807 298.783,45.165 298.783,45.165 ZM 258.352,111.261 C 275.459,116.698 277.030,122.914 277.026,122.911 C 231.151,311.832 14.217,261.294 14.217,261.294 C 91.184,208.422 121.518,134.574 121.518,134.574 C 171.073,55.948 250.583,91.815 250.583,91.815 C 201.591,202.223 122.289,221.662 122.289,221.662 C 246.688,211.555 258.352,111.261 258.352,111.261 Z" />
<glyph unicode="&#xe02d;" d="M 256.413,464.879c-133.246,0-241.295-108.025-241.295-241.289c0-133.246, 108.049-241.278, 241.295-241.278
	c 133.226,0, 241.275,108.018, 241.275,241.278C 497.688,356.837, 389.639,464.879, 256.413,464.879z M 246.542,368.002
	c 7.318,7.376, 16.486,11.223, 26.781,11.168c 10.291,0.055, 19.466-3.785, 26.791-11.168c 7.438-7.25, 11.22-16.49, 11.22-26.952
	c0-10.319-3.775-19.504-11.22-26.873c-7.267-7.373-16.367-11.213-26.549-11.213l-0.222,0 c-10.284-0.051-19.449,3.775-26.836,11.213
	c-7.356,7.369-11.206,16.565-11.165,26.873C 235.274,351.512, 239.118,360.765, 246.542,368.002z M 325.7,132.175
	c-19.060-40.984-46.773-62.515-82.132-62.515l-0.259,0 c-14.196,0-25.351,2.956-33.113,9.458c-7.806,6.455-11.66,16.261-11.592,28.32
	c 0.038,7.421, 2.69,19.255, 7.782,36.202l 23.596,76.964c 1.874,5.85, 2.703,9.793, 2.639,10.667c0,1.389-0.256,1.693-0.256,1.693
	s-0.382,0.341-1.713,0.341c-4.707,0.433-14.025-8.141-23.989-27.378l-0.87-1.625l-28.375,0 l 2.14,4.471
	c 19.251,42.144, 47.524,64.201, 83.705,64.079c 12.749,0, 23.238-3.137, 30.758-9.735c 7.598-6.642, 11.319-16.032, 11.267-27.221
	c0-8.346-2.792-20.811-8.24-37.741l-22.921-70.577c-3.311-9.827-4.84-16.305-4.772-17.848c 0.055-1.113, 0.263-1.331, 0.413-1.553
	c 0.287-0.225, 0.724-0.498, 2-0.58c 1.98-0.079, 6.707,2.468, 12.51,8.994c 5.878,6.485, 10.26,12.653, 13.251,18.381l 0.874,1.686l 29.406,0 
	L 325.7,132.175z" />
<glyph unicode="&#xe02e;" d="M 501.316,230.12 L 466.459,194.915 L 254.331,364.486 L 42.237,194.785 L 11.489,229.861 L 254.28,424.793 L 254.42,424.793 L 346.508,361.95 L 346.508,380.553 L 416.024,380.553 L 416.024,302.019 ZM 213.78,22.439 L 83.425,23.501 L 84.084,203.605 L 255.874,343.156 L 430.578,203.605 L 435.193,23.501 L 308.579,22.402 L 308.579,146.712 L 213.78,146.712 Z" />
<glyph unicode="&#xe02f;" d="M 70.625,105.68 L 70.625,105.68 L 70.622,152.259 L 70.622,330.776 C 70.622,347.013 79.408,360.168 95.672,360.168 C 111.91,360.168 120.723,347.013 120.723,330.776 L 120.723,225.423 L 120.723,188.44 C 120.723,188.44 137.424,186.081 137.424,189.522 L 137.424,405.286 C 137.424,421.53 146.21,434.712 162.475,434.712 C 178.712,434.712 187.525,421.526 187.525,405.286 L 187.525,231.694 C 187.525,231.677 187.525,231.557 204.227,231.383 L 204.227,436.675 C 204.227,452.936 217.173,466.084 233.448,466.084 C 249.689,466.084 262.673,452.936 262.673,436.675 L 262.673,233.97 L 279.375,233.97 L 279.375,373.907 C 279.375,390.147 292.318,403.343 308.599,403.343 C 324.861,403.343 337.821,390.147 337.821,373.907 L 337.821,218.952 L 337.821,197.379 L 337.821,144.835 L 394.721,204.076 C 406.221,215.559 422.519,215.552 433.981,204.056 C 445.495,192.577 444.583,173.913 433.114,162.434 L 296.083,30.727 C 299.711,34.208 296.083,30.727 296.083,30.727 C 273.237,0.748 233.639-18.886 193.051-18.886 C 123.989-18.886 70.625,36.615 70.625,105.68 Z" />
<glyph unicode="&#xe030;" d="M 418.652,142.507c-0.488,5.714-1.929,11.592-3.881,17.708c-0.847,103.018, 31.16,145.695, 31.16,145.695s-48.138-1.171-103.752-31.758
	c-1.178,1.707-2.307,3.342-3.485,5.018c 1.679,41.762, 9.793,83.507, 21.507,114.319c-6.919-3.802-36.338-16.244-66.034-38.485
	c-15.258,36.506-20.002,74.165-1.853,111.957C 151.043,365.735, 66.901,252.751, 66.864,161.871c-0.089-70.775, 17.606-181.627, 188.764-181.627
	c 100.765,0, 152.125,38.612, 161.707,113.531c0,0, 1.553,4.212, 1.167,7.479C 419.615,114.060, 419.833,127.628, 418.652,142.507z
	 M 334.517,62.075c-11.035-19.234-16.568-24.907-87.525-26.924c-70.898-1.997-84.053,13.462-97.191,37.612
	C 112.503,141.568, 159.611,184.972, 156.918,179.924c-2.673-5.001-16.981-49.265, 51.343-85.415c-33.563,41.807, 27.45,91.836, 50.063,114.954
	c0-59.341, 24.074-114.954, 24.074-114.954s 38.926,22.852, 67,105.219C 364.165,135.714, 366.715,118.118, 334.517,62.075z" />
<glyph unicode="&#xe032;" d="M 464.602,287.287 C 461.343,283.051 456.67,283.907 454.362,288.73 C 426.94,345.996 375.624,389.625 313.351,406.808 C 308.2,408.228 306.538,412.675 310.139,416.625 C 328.564,436.852 355.069,449.577 384.631,449.577 C 440.361,449.577 485.526,404.391 485.526,348.662 C 485.526,325.54 477.693,304.288 464.602,287.287 ZM 201.987,417.341 C 205.623,413.426 203.984,409.078 198.806,407.743 C 136.055,391.561 84.091,348.553 55.825,291.656 C 53.449,286.87 48.852,286.16 45.766,290.522 C 34.133,306.975 27.279,327.004 27.279,348.662 C 27.279,404.388 72.465,449.577 128.215,449.577 C 157.392,449.577 183.586,437.149 201.987,417.341 ZM 448.693,193.181c-0.003,107.336-86.985,194.324-194.338,194.324c-107.325,0-194.331-86.985-194.331-194.324
	c0-64.311, 31.249-121.289, 79.37-156.658c-3.564-3.331-7.008-7.516-10.001-12.373c-9.708-15.715-11.063-32.454-3.045-37.414
	c 8.032-4.932, 22.388,3.792, 32.048,19.517c 2.983,4.826, 5.168,9.752, 6.54,14.408c 26.774-13.906, 57.167-21.811, 89.419-21.811
	c 33.242,0, 64.522,8.356, 91.877,23.060c 1.341-5.004, 3.625-10.366, 6.871-15.623c 9.694-15.722, 24.030-24.443, 32.055-19.5
	c 8.018,4.932, 6.656,21.678-3.038,37.393c-3.342,5.42-7.24,9.981-11.24,13.462C 418.13,73.086, 448.693,129.556, 448.693,193.181z
	 M 99.57,193.181c0,85.501, 69.315,154.805, 154.784,154.805c 85.477,0, 154.808-69.301, 154.808-154.805c0-85.473-69.332-154.778-154.808-154.778
	C 168.885,38.403, 99.57,107.708, 99.57,193.181zM 283.672,435.958 C 283.672,421.618 272.090,410.027 257.778,410.033 C 243.47,410.033 231.854,421.615 231.854,435.958 C 231.854,450.243 243.473,461.838 257.778,461.838 C 272.084,461.838 283.672,450.243 283.672,435.958 ZM 314.559,184.566 C 319.379,184.566 321.157,180.801 321.157,176.957 C 321.157,176.957 321.157,151.552 321.157,141.578 C 321.157,135.82 317.512,135.339 312.32,135.339 L 248.907,135.339 C 227.147,135.339 227.553,168.823 227.553,177.5 L 227.553,282.491 C 227.553,291.164 240.258,291.212 248.907,291.212 L 250.269,291.212 C 258.922,291.212 268.568,291.164 268.568,282.491 L 268.568,184.566 L 314.559,184.566 Z" />
<glyph unicode="&#xe033;" d="M 180.497,284.334L 241.241,284.334L 241.241,223.597L 180.497,223.597zM 271.572,284.334L 332.285,284.334L 332.285,223.597L 271.572,223.597zM 362.656,284.334L 423.369,284.334L 423.369,223.597L 362.656,223.597zM 89.433,193.249L 150.159,193.249L 150.159,132.533L 89.433,132.533zM 180.497,193.249L 241.241,193.249L 241.241,132.533L 180.497,132.533zM 271.572,193.249L 332.285,193.249L 332.285,132.533L 271.572,132.533zM 362.656,193.249L 423.369,193.249L 423.369,132.533L 362.656,132.533zM 89.433,102.182L 150.159,102.182L 150.159,41.469L 89.433,41.469zM 180.497,102.182L 241.241,102.182L 241.241,41.469L 180.497,41.469zM 271.572,102.182L 332.285,102.182L 332.285,41.469L 271.572,41.469zM 423.369,405.746L 423.369,466.452 L 332.295,466.452 l0-60.71 L 180.497,405.743 L 180.497,466.452 L 89.433,466.452 l0-60.71 L 28.74,405.743 l0-425.004 l 455.325,0 L 484.065,405.746 L 423.369,405.746 z M 362.656,436.087
	l 30.365,0 l0-60.692 l-30.365,0 L 362.656,436.087 z M 119.811,436.087l 30.348,0 l0-60.692 l-30.348,0 L 119.811,436.087 z M 453.717,11.121L 59.085,11.121 l0,303.548 l 394.619,0 l0-303.548 L 453.717,11.121 z" />
<glyph unicode="&#xe034;" d="M 125.669-21.586L 177.92,160.41l 11.793,149.968c0,0-32.014,12.001-32.014-104.465L 120.897,207.548l 14.309,102.83
						c0,0, 32.594,50.565, 78.080,67.41l 63.468-6.745c0,0, 12.353-55.61, 115.145-126.372c0,0-8.438-19.657-15.159-26.979
						c0,0-72.465,30.334-109.541,89.317l-7.694-128.911c0,0, 85.241-117.115, 89.146-181.159l-44.373-18.528c0,0-25.279,100.588-79.21,164.052
						c0,0-20.217-69.693-45.489-164.052L 125.669-21.589 L 125.669-21.586zM 219.075,428.343A40.438,40.438 1620 1 1 299.95,428.343A40.438,40.438 1620 1 1 219.075,428.343z" />
<glyph unicode="&#xe035;" d="M 475.921,12.981L 36.895,12.981 c-7.339,0-14.107,3.912-17.766,10.267c-3.676,6.349-3.676,14.165,0,20.507L 238.633,423.943
			c 3.659,6.359, 10.452,10.271, 17.773,10.271c 7.332,0, 14.107-3.912, 17.78-10.271l 219.508-380.191c 3.656-6.339, 3.656-14.172,0-20.507
			C 490.025,16.886, 483.243,12.981, 475.921,12.981z M 72.462,54.040l 367.889,0 l-183.945,318.594L 72.462,54.040zM 234.947,290.72l 43.339,0 l0-51.746 l-11.206-95.201l-20.64,0 l-11.493,95.201L 234.947,290.72 z M 235.899,127.293L 277.333,127.293 l0-40.021 L 235.899,87.272 L 235.899,127.293 z" />
<glyph unicode="&#xe036;" d="M 97.7-0.143c-9.236-9.236-24.351-9.236-33.597,0l-56.678,56.689c-9.236,9.236-9.236,24.351,0,33.597l 123.771,123.771
		c 9.236,9.236, 9.236,24.361,0,33.608L 7.434,371.292c-9.236,9.236-9.236,24.361,0,33.597l 56.678,56.678c 9.236,9.236, 24.351,9.236, 33.597,0
		l 214.067-214.047c 9.236-9.236, 9.236-24.361,0-33.608L 97.7-0.143z" horiz-adv-x="337" />
<glyph unicode="&#xe037;" d="M 117.906-21.157L 30.427,66.313L 182.93,218.807L 30.427,371.301L 117.906,458.789L 357.879,218.807 z" horiz-adv-x="374" />
<glyph unicode="&#xe038;" d="M0,38.075L 256,425.29L 512,38.075 	z" />
<glyph unicode="&#xe039;" d="M 90.28,332.149 C 118.572,332.149 166.224,332.149 189.557,332.142 C 200.763,332.142 211.5,332.603 221.776,333.414 L 221.776,195.862 C 212.89,196.579 203.644,196.988 194.063,197.105 C 200.967,189.689 200.967,190.164 200.967,177.788 C 200.967,165.376 188.562,141.553 188.562,114.768 C 188.562,87.947 210.893,65.112 208.911,54.184 C 206.928,43.293 166.773,37.332 156.796,39.804 C 141.371,43.637 142.892,120.21 132.966,147.003 C 123.034,173.824 104.177,161.916 104.177,197.135 C 99.211,197.135 94.523,197.135 90.28,197.135 C 61.989,197.135 61.989,248.269 61.989,264.645 C 61.989,281.022 61.989,332.149 90.28,332.149 ZM 400.998,404.363 C 424.046,369.671 430.263,300.668 430.256,264.638 C 430.256,219.546 422.597,156.665 401.137,124.789 C 373.343,147.485 321.624,184.379 235.666,194.501 L 235.666,334.775 C 321.485,344.891 373.153,381.659 400.998,404.363 ZM 414.391,415.532 C 452.118,446.8 461.539,293.932 461.539,264.645 C 461.539,235.359 452.125,82.498 414.398,113.759 C 413.579,114.417 412.76,115.105 411.875,115.851 C 442.602,159.927 444.175,247.362 444.175,264.645 C 444.175,275.149 443.238,367.565 411.743,413.316 C 412.672,414.084 413.55,414.83 414.391,415.532 Z" />
<glyph unicode="&#xe03a;" d="M 491.855,54.371L 273.674,432.254c-3.645,6.318-10.38,10.206-17.671,10.206c-7.274,0-14.029-3.891-17.661-10.206L 20.166,54.371
	c-3.652-6.304-3.652-14.070,0-20.384c 3.635-6.315, 10.366-10.202, 17.661-10.202l 436.361,0 c 7.277,0, 14.019,3.884, 17.667,10.202
	C 495.486,40.284, 495.486,48.067, 491.855,54.371z M 280.201,79.626c0-1.877-1.519-3.393-3.393-3.393L 235.622,76.233 
	c-1.871,0-3.393,1.516-3.393,3.393l0,39.776 c0,1.874, 1.522,3.393, 3.393,3.393l 41.185,0 c 1.874,0, 3.393-1.519, 3.393-3.393L 280.201,79.626 z
	 M 282.839,254.717c0-0.198-0.010-0.396-0.034-0.594L 271.667,159.502c-0.3-2.563-2.475-4.492-5.052-4.492l-20.514,0 
	c-2.574,0-4.745,1.918-5.052,4.478L 229.622,254.106c-0.024,0.205-0.038,0.41-0.038,0.611L 229.584,306.149 c0,2.809, 2.277,5.089, 5.089,5.089l 43.073,0 
	c 2.809,0, 5.089-2.28, 5.089-5.089L 282.836,254.717 z"  />
<glyph unicode="&#xe03b;" d="M 480.812,172.582 C 491.025,156.634 487.974,80.097 487.974,80.097 C 487.974,80.097 482.628,57.754 298.295,57.754 C 294.868,57.754 291.523,57.764 288.215,57.781 C 291.116,62.795 293.833,67.908 296.322,73.107 C 323.376,129.662 318.508,226.505 311.248,304.551 C 310.569,311.904 305.681,317.239 298.182,318.826 C 283.040,322.041 251.877,328.090 216.549,331.773 C 214.733,335.295 213.548,338.951 213.388,341.753 C 212.876,349.809 214.593,372.139 225.44,369.855 C 223.229,386.604 221.631,401.739 222.413,409.771 C 225.239,438.961 254.027,469.852 298.288,469.852 C 342.548,469.852 371.35,438.961 374.163,409.771 C 374.921,401.739 373.333,386.604 371.108,369.855 C 381.949,372.142 383.693,349.812 383.181,341.753 C 382.696,333.431 373.357,317.577 364.469,320.154 C 360.049,285.904 345.829,274.999 345.829,274.999 L 346.184,238.568 C 346.184,238.568 355.164,233.090 393.137,217.276 C 431.073,201.475 469.405,190.385 480.812,172.582 ZM 29.501,302.012 C 52.026,306.777 108.967,317.583 161.812,317.583 C 214.651,317.583 271.596,306.777 294.13,302.012 C 301.138,226.338 305.848,133.082 280.73,80.555 C 254.645,26.006 199.072-21.849 161.812-21.849 C 124.553-21.849 68.983,26.006 42.895,80.555 C 17.783,133.062 22.487,226.263 29.501,302.012 Z"  />
<glyph unicode="&#xe03c;" d="M 88.747,224A167.253,167.253 900 1 1 423.253,224A167.253,167.253 900 1 1 88.747,224z"  />
<glyph unicode="&#xe03d;" d="M 488.585,362.428 L 222.785,75.213 L 196.799,47.145 L 171.817,76.165 L 30.242,240.811 L 76.438,290.57 L 191.099,206.107 L 441.87,412.054 Z"  />
<glyph unicode="&#xe03e;" d="M 365.879,54.126L 200.53,219.419L 365.879,384.759L 309.303,441.307L 87.451,219.419L 309.303-2.45 z"  />
<glyph unicode="&#xe03f;" d="M 151.451,54.126L 316.8,219.419L 151.451,384.759L 208.018,441.307L 429.879,219.419L 208.018-2.45 z"  />
<glyph unicode="&#xe040;" d="M 416.155,113.728L 250.862,279.086L 85.531,113.728L 28.983,170.295L 250.862,392.165L 472.741,170.295 z"  />
<glyph unicode="&#xe041;" d="M 85.568,325.138L 250.862,159.781L 416.201,325.138L 472.741,268.562L 250.862,46.693L 28.992,268.562 z"  />
<glyph unicode="&#xe042;" d="M 310.327,183.357L 310.327,412.31 c0,29.955-24.375,54.33-54.323,54.33c-29.952,0-54.323-24.371-54.323-54.33l0-228.953 
	c-33.512-19.36-54.019-54.576-54.019-93.648c0-59.744, 48.602-108.346, 108.343-108.346c 59.737,0, 108.336,48.602, 108.336,108.346
	C 364.339,128.785, 343.832,163.997, 310.327,183.357z M 256.003,442.156c 16.452,0, 29.836-13.391, 29.836-29.846l0-104.38 L 226.164,307.93 l0,104.38 
	C 226.164,428.766, 239.551,442.156, 256.003,442.156z"  />
<glyph unicode="&#xe043;" d="M 357.048,155.477c-1.399-0.56-2.854-0.823-4.308-0.823c-3.038,0-6.021,1.188-8.257,3.4L 260.84,241.084
		L 190.747,158.775c-2.266-2.666-5.553-4.12-8.922-4.12c-1.42,0-2.843,0.259-4.215,0.782l-79.793,30.768l0-90.593 
		c0-7.335, 5.536-15.462, 12.36-18.156l 134.004-52.855c 6.83-2.697, 17.886-2.697, 24.719,0l 134.004,52.855c 6.833,2.693, 12.367,10.82, 12.367,18.156
		L 415.27,178.456 L 357.048,155.477zM 268.015,359.154L 333.892,411.587c 1.693,1.345, 4.745,1.946, 6.813,1.345l 141.793-41.329
	c 2.079-0.604, 2.406-2.205, 0.744-3.577l-65.83-54.395c-1.662-1.372-4.683-1.976-6.755-1.348l-141.961,43.298
	C 266.626,356.209, 266.319,357.809, 268.015,359.154zM 29.488,233.117L 96.109,299.571c 1.526,1.519, 4.424,2.205, 6.472,1.526L 246.101,253.46
	c 2.045-0.686, 2.574-2.563, 1.178-4.209l-64.092-75.264c-1.396-1.635-4.168-2.345-6.185-1.574L 30.365,228.953
	C 28.355,229.731, 27.962,231.595, 29.488,233.117zM 273.043,253.635l 139.616,46.35c 2.051,0.683, 4.84-0.102, 6.226-1.751l 61.235-72.482
	c 1.389-1.649, 0.898-3.632-1.113-4.427l-123.983-48.947c-2.010-0.788-4.878-0.212-6.4,1.324L 272.108,249.655
	C 270.578,251.17, 271.002,252.959, 273.043,253.635zM 51.599,380.126l 145.159,42.305c 2.075,0.608, 4.837-0.276, 6.182-1.969l 47.084-59.464
	c 1.345-1.693, 0.758-3.574-1.314-4.205L 103.349,312.463c-2.062-0.628-4.796,0.246-6.11,1.959L 50.22,375.927
	C 48.91,377.641, 49.527,379.518, 51.599,380.126z"  />
<glyph unicode="&#xe044;" d="M 256.413,464.879c-133.246,0-241.295-108.025-241.295-241.289c0-133.246, 108.049-241.278, 241.295-241.278
	c 133.226,0, 241.275,108.018, 241.275,241.278C 497.688,356.837, 389.639,464.879, 256.413,464.879z M 284.669,81.193L 223.031,81.193 L 223.031,141.657 l 61.641,0 L 284.672,81.193 z
	 M 348.078,264.817c-3.277-8.113-7.328-15.053-12.169-20.808c-4.847-5.762-10.209-10.667-16.101-14.722c-5.888-4.058-11.452-8.117-16.684-12.172
	c-5.239-4.062-9.885-8.707-13.94-13.94c-4.058-5.236-6.615-11.776-7.653-19.63l0-14.92 L 228.526,168.625 l0,17.671 c 0.785,11.25, 2.946,20.675, 6.479,28.266
	c 3.533,7.591, 7.653,14.070, 12.367,19.436c 4.71,5.359, 9.68,10.011, 14.92,13.937c 5.229,3.925, 10.069,7.851, 14.524,11.779
	c 4.448,3.925, 8.049,8.247, 10.796,12.957c 2.751,4.71, 3.987,10.598, 3.731,17.667c0,12.035-2.942,20.937-8.834,26.699
	c-5.891,5.755-14.070,8.636-24.535,8.636c-7.066,0-13.155-1.372-18.258-4.123s-9.295-6.417-12.564-10.994c-3.277-4.584-5.693-9.95-7.264-16.097
	c-1.57-6.154-2.355-12.759-2.355-19.828L 159.819,274.63 c 0.259,14.135, 2.683,27.092, 7.264,38.868c 4.577,11.779, 10.994,21.985, 19.241,30.624
	c 8.243,8.636, 18.186,15.37, 29.836,20.217c 11.643,4.84, 24.668,7.264, 39.062,7.264c 18.582,0, 34.089-2.553, 46.524-7.656
	c 12.431-5.106, 22.439-11.452, 30.037-19.043c 7.588-7.595, 13.015-15.773, 16.292-24.538c 3.27-8.772, 4.908-16.951, 4.908-24.538
	C 352.983,283.269, 351.348,272.923, 348.078,264.817z"  />
<glyph unicode="&#xe045;" d="M 446.075,257.268c-30.831,103.834-129.118,169.144-232.8,162.431L 239.206,447.474L 204.366,480L 122.466,392.362l 92.774-86.684
	l 32.526,34.845l-35.021,32.723c 83.845,7.049, 163.967-45.314, 188.883-129.139c 28.516-96.047-26.218-196.981-122.274-225.518
	c-96.006-28.52-197.001,26.239-225.501,122.27c-18.395,61.923-1.962,125.772, 37.65,171.053l-45.634,17.154
	C 4.092,273.402-11.891,199.547, 9.429,127.658c 35.815-120.615, 162.562-189.297, 283.136-153.514C 413.139,9.943, 481.878,136.694, 446.075,257.268" horiz-adv-x="454.656"  />
<glyph unicode="&#xe046;" d="M 299.083,235.745L 299.083,258.929L 279.518,258.929L 279.518,252.102L 255.618,270.104L 255.577,270.104L 189.293,216.463L 197.68,206.674L 255.584,252.901L 313.521,206.551L 322.707,216.143 	zM 243.166,194.604L 268.332,194.604L 268.332,159.399L 303.94,159.703L 303.206,208.865L 255.768,246.972L 208.985,208.865L 208.203,159.703L 243.166,159.413 	zM 256-22.76c-57.095,0-103.547,46.298-103.547,103.188L 152.453,349.088 c0,56.897, 46.452,103.178, 103.547,103.178
		c 57.098,0, 103.55-46.281, 103.55-103.178l0-268.66 C 359.55,23.538, 313.098-22.76, 256-22.76z M 256,433.111
		c-46.52,0-84.378-37.683-84.378-84.023l0-268.66 c0-46.329, 37.854-84.033, 84.378-84.033c 46.537,0, 84.381,37.704, 84.381,84.033L 340.381,349.088 
		C 340.381,395.414, 302.524,433.111, 256,433.111z"  />
<glyph unicode="&#xe047;" d="M 124.573,352.505L 387.43,352.505L 387.43,6.581L 124.573,6.581zM 440.48,352.505l-21.883,0 l0-345.904 l 21.883,0 c 36.676,0, 66.423,29.744, 66.423,66.427L 506.9,286.082 
			C 506.9,322.761, 477.157,352.505, 440.48,352.505zM 93.406,352.505l-21.879,0 c-36.68,0-66.423-29.744-66.423-66.427l0-213.074 c0-36.68, 29.744-66.427, 66.423-66.427l 21.879,0 L 93.406,352.505 zM 308.75,366.35l0,42.107 c0,0.717-0.601,1.314-1.318,1.314L 204.568,409.771 c-0.717,0-1.314-0.601-1.314-1.314l0-42.107 l-31.652,0 l0,48.968 
		c0,14.401, 11.704,26.102, 26.105,26.102l 116.572,0 c 14.404,0, 26.102-11.701, 26.102-26.102l0-48.968 L 308.75,366.35 z"  />
<glyph unicode="&#xe048;" d="M 456.202,203.404l 24.293,0 c 9.711,0, 17.572,7.864, 17.572,17.572c0,9.711-7.861,17.572-17.572,17.572l-24.3,0 l 36.615,30.228c 7.496,6.185, 8.54,17.268, 2.359,24.74
	c-6.182,7.496-17.261,8.54-24.736,2.359l-69.448-57.327L 299.776,238.568 L 373.337,312.136l 89.648,8.578c 9.663,0.925, 16.742,9.51, 15.814,19.173
	c-0.928,9.667-9.516,16.742-19.176,15.838l-47.251-4.516l 17.179,17.183c 6.868,6.864, 6.868,17.999,0,24.866c-6.871,6.868-18.002,6.868-24.866,0
	l-17.186-17.183l 4.516,47.261c 0.925,9.667-6.175,18.248-15.838,19.173c-9.66,0.928-18.244-6.171-19.173-15.814l-8.578-89.651L 273.575,262.086
	L 273.575,368.992 l 57.324,69.441c 6.182,7.472, 5.113,18.555-2.359,24.736c-7.499,6.182-18.562,5.11-24.74-2.362l-30.225-36.608L 273.575,448.495 
	c0,9.711-7.864,17.572-17.572,17.572c-9.711,0-17.572-7.861-17.572-17.572l0-24.303 l-30.228,36.615c-6.185,7.499-17.268,8.54-24.74,2.362
	c-7.496-6.182-8.54-17.265-2.359-24.736l 57.327-69.448l0-102.523 L 165.908,338.961l-8.578,89.648c-0.925,9.663-9.506,16.742-19.149,15.814
	c-9.67-0.928-16.742-9.516-15.841-19.176l 4.516-47.254l-17.183,17.179c-6.861,6.864-17.995,6.864-24.842,0
	c-6.871-6.868-6.868-18.002-0.003-24.866l 17.186-17.186l-47.261,4.516c-9.667,0.925-18.251-6.175-19.173-15.838
	c-0.928-9.663, 6.147-18.248, 15.811-19.173l 89.655-8.574l 75.517-75.513L 111.008,238.578 l-69.441,57.32c-7.472,6.182-18.555,5.117-24.736-2.355
	c-6.185-7.499-5.11-18.562, 2.359-24.743l 36.608-30.222l-24.296,0 c-9.708,0-17.572-7.864-17.572-17.575s 7.864-17.575, 17.572-17.575l 24.303,0 l-36.615-30.228
	c-7.496-6.182-8.54-17.261-2.359-24.736s 17.261-8.544, 24.736-2.362l 69.444,57.327l 103.875,0 L 143.439,131.953l-89.651-8.578
	c-9.66-0.922-16.736-9.506-15.811-19.173c 0.928-9.667, 9.516-16.736, 19.173-15.814l 47.258,4.516l-17.183-17.183
	c-6.868-6.868-6.864-17.995, 0.003-24.842s 17.995-6.868, 24.842,0l 17.186,17.183l-4.516-47.261c-0.925-9.667, 6.175-18.251, 15.814-19.173
	c 9.663-0.928, 18.244,6.147, 19.173,15.814l 8.578,89.651l 70.117,70.12l0-98.202 l-57.32-69.444c-6.182-7.472-5.117-18.555, 2.355-24.736
	c 7.499-6.182, 18.562-5.11, 24.743,2.362l 30.222,36.605l0-24.296 c0-9.708, 7.864-17.572, 17.575-17.572s 17.572,7.864, 17.572,17.572l0,24.303 l 30.228-36.611
	c 6.185-7.499, 17.265-8.544, 24.74-2.362s 8.54,17.261, 2.359,24.736L 273.572,79.008L 273.572,181.559 l 72.516-72.516l 8.578-89.651
	c 0.925-9.66, 9.51-16.736, 19.173-15.814c 9.667,0.928, 16.739,9.52, 15.814,19.173l-4.516,47.261l 17.179-17.183
	c 6.868-6.868, 17.999-6.868, 24.866,0s 6.868,17.995,0,24.842l-17.186,17.21l 47.264-4.516c 9.667-0.928, 18.248,6.175, 19.173,15.814
	c 0.928,9.66-6.171,18.244-15.814,19.173l-89.655,8.578L 301.438,203.404l 99.553,0 l 69.441-57.327c 7.472-6.182, 18.555-5.11, 24.736,2.362
	c 6.185,7.499, 5.11,18.562-2.359,24.736L 456.202,203.404z"  />
<glyph unicode="&#xe049;" d="M 227.772,198.507c-18.335-4.809-35.668-14.35-50.008-28.69l 22.839-22.839c 15.381,15.378, 35.614,22.993, 55.812,22.882
		L 227.772,198.507zM 224.979,122.61l 31.021-31.024l 31.021,31.024C 269.917,139.713, 242.079,139.713, 224.979,122.61zM 134.448,291.842c-15.704-9.535-30.552-21.031-44.111-34.587l 21.422-21.422c 13.641,13.641, 28.776,24.887, 44.852,33.849
		L 134.448,291.842zM 212.093,321.627l 26.893-26.896c 57.749,4.791, 117.158-14.812, 161.244-58.898c 0.004-0.004, 0.004-0.004, 0.007-0.004
		l 21.422,21.422c-0.007,0.004-0.007,0.007-0.014,0.011C 364.784,314.126, 285.717,335.566, 212.093,321.627zM 180.596,245.683c-16.595-8.099-32.163-18.991-45.933-32.764l 20.487-20.487c 13.953,13.953, 30.108,24.397, 47.347,31.35
		L 180.596,245.683zM 271.321,262.396L 310.24,223.47c 16.96-6.95, 32.847-17.283, 46.596-31.035l 0.004-0.004l 20.484,20.484
		c0,0.004,0,0.004-0.004,0.004C 347.77,242.479, 310.018,258.956, 271.321,262.396zM 437.022,405.019C 388.665,453.372, 324.382,480, 256,480S 123.331,453.372, 74.981,405.019
		C 26.628,356.665,0,292.382,0,223.993c0-68.382, 26.628-132.665, 74.981-181.015c 48.35-48.35, 112.633-74.978, 181.019-74.978
		s 132.669,26.628, 181.026,74.978c 48.346,48.35, 74.974,112.633, 74.974,181.015C 512,292.382, 485.372,356.665, 437.022,405.019z
		 M 370.108,56.171c-32.542-22.199-71.83-35.199-114.108-35.199c-111.949,0-203.028,91.079-203.028,203.024c0,42.278, 13.008,81.573, 35.203,114.115
		c 2.281,3.344, 4.683,6.592, 7.15,9.785l 49.893-49.89l 22.542-22.542l 24.558-24.562l 22.736-22.736l 26.91-26.91l 34.025-34.025l 103.907-103.907
		C 376.7,60.851, 373.452,58.456, 370.108,56.171z M 423.825,109.892c-2.281-3.348-4.687-6.595-7.154-9.785l-130.868,130.871
		l-32.070,32.070l-29.861,29.861l-25.639,25.639L 132.103,384.675c 3.201,2.467, 6.448,4.873, 9.785,7.15c 32.542,22.195, 71.83,35.199, 114.104,35.199
		c 111.949,0, 203.024-91.079, 203.024-203.031C 459.024,181.719, 446.020,142.427, 423.825,109.892z"  />
<glyph unicode="&#xe04a;" d="M 149.048,96.299l 212.733,212.733l 43.155,43.155c 0.147-0.147, 0.304-0.294, 0.451-0.441l 106.618,106.618l-0.451,0.451
		L 490.694,479.665l-20.414-21.306L 383.128,371.208c-0.167,0.127-0.335,0.264-0.507,0.395l-43.753-43.753l-49.659-49.664l-20.46-20.46L 130.225,119.192
		l-43.667-43.667c 0.127-0.167, 0.269-0.33, 0.395-0.502L0-11.92l 15.801-15.806l 4.907-3.929l 20.566,20.186l 64.694,64.694
		c 0.147-0.152, 0.309-0.289, 0.456-0.436l 43.084,43.084C 149.352,96.010, 149.195,96.147, 149.048,96.299zM 324.4,402.703l0-47.611 l 32.915,32.915C 346.837,393.786, 335.857,398.739, 324.4,402.703zM 115.783,146.47c-7.056,17.408-10.97,36.418-10.97,56.33c0,57.065, 31.916,106.82, 78.813,132.355L 183.62,401.765 
		C 102.212,372.323, 43.855,294.261, 43.855,202.8c0-36.955, 9.551-71.71, 26.279-101.979L 115.783,146.47zM 380.958,285.592c 15.76-23.765, 25.022-52.183, 25.022-82.787c0-83.040-67.549-150.569-150.589-150.569
		c-30.593,0-59.073,9.191-82.863,24.931l-43.723-43.728c 35.318-26.462, 79.142-42.151, 126.57-42.151c 116.65,0, 211.522,94.892, 211.522,211.527
		c 0.010,47.439-15.71,91.242-42.182,126.545L 380.958,285.592zM 289.209,443.445L 227.627,443.445L 227.627,258.314L 289.209,319.901 	z"  />
<glyph unicode="&#xe04e;" d="M 62.961-32.331L0,30.615L 449.702,480.331L 903.529,30.615L 841.427-32.331L 449.702,354.409 	z" horiz-adv-x="903.529"  />
<glyph unicode="&#xe04f;" d="M 520.469,134.581l 67.275,67.275l0,0.011c-127.040,127.051-333.76,127.029-460.8-0.011l 67.275-67.275
		C 284.149,224.523, 430.528,224.523, 520.469,134.581zM 448.693,62.805c-50.379,50.368-132.341,50.368-182.709,0l 91.349-91.371L 448.693,62.805zM 654.315,268.459L 654.315,268.459l 60.352,60.32c0,0.011,0,0.011-0.011,0.011C 517.621,525.813, 197.035,525.824,0,328.779l 60.352-60.341
		C 224.107,432.181, 490.571,432.203, 654.315,268.459z" horiz-adv-x="714.667"  />
<glyph unicode="&#xe050;" d="M 143.115,192.096L 510.080,386.688L 315.093,24.416L 298.752,175.509 z" horiz-adv-x="714.667"  />
<glyph unicode="&#xe051;" d="M 457.589,200.341l 49.568,0 l-6.24-44.885c-5.995-3.125-14.059-6.187-24.203-9.184c-10.144-2.987-21.856-4.48-35.125-4.48
	c-13.013,0-24.469,2.208-34.357,6.624c-9.899,4.416-18.016,10.603-24.395,18.549c-6.379,7.936-10.869,17.301-13.461,28.107
	c-2.613,10.795-2.997,22.699-1.163,35.712c 1.824,12.747, 5.525,24.597, 11.125,35.52c 5.6,10.944, 12.683,20.363, 21.269,28.309
	c 8.597,7.925, 18.475,14.101, 29.664,18.549c 11.179,4.416, 23.285,6.624, 36.299,6.624c 15.595,0, 28.352-2.208, 38.251-6.624
	c 9.877-4.427, 18.347-10.944, 25.376-19.52l 49.568,46.837c-12.235,13.013-27.253,22.187-45.077,27.531c-17.835,5.323-37.803,7.989-59.915,7.989
	c-21.6,0-42.027-3.381-61.28-10.144s-36.373-16.459-51.317-29.088c-9.888-8.341-18.603-17.963-26.325-28.629
	c 0.107,8.533-1.088,16.235-3.723,22.987c-3.776,9.621-9.504,17.621-17.163,24c-7.68,6.368-16.917,11.051-27.723,14.048
	c-10.805,2.997-22.315,4.501-34.549,4.501c-11.712,0-23.029-1.237-33.952-3.723c-10.933-2.475-21.077-6.315-30.443-11.509
	c-9.376-5.216-17.76-12.043-25.184-20.491c-7.413-8.469-13.461-18.667-18.144-30.645l 62.453-13.28c 2.859,7.275, 7.616,13.387, 14.24,18.347
	c 6.635,4.939, 14.507,7.413, 23.627,7.413c 9.621,0, 17.365-2.731, 23.211-8.192c 5.856-5.472, 8.267-12.363, 7.221-20.693
	c-1.045-6.507-3.115-11.787-6.24-15.808c-3.125-4.043-6.965-7.157-11.52-9.365c-4.555-2.208-9.504-3.712-14.827-4.491
	c-5.344-0.779-10.741-1.163-16.213-1.163l-19.125,0 l-7.019-50.741l 13.653,0 c 6.507,0, 12.949-0.192, 19.328-0.576s 12.032-1.632, 16.981-3.712
	c 4.939-2.080, 8.725-5.269, 11.317-9.557c 2.613-4.299, 3.392-10.347, 2.347-18.155c-1.301-10.411-5.525-18.933-12.683-25.557
	c-7.168-6.635-17.109-9.952-29.867-9.952c-12.501,0-21.536,2.848-27.125,8.587c-5.611,5.717-8.661,13.525-9.173,23.424l-63.627-14.443
	c 1.045-12.501, 3.968-23.221, 8.779-32.203c 4.821-8.981, 11.125-16.395, 18.933-22.261c 7.808-5.845, 16.917-10.144, 27.328-12.875
	c 10.4-2.731, 21.717-4.107, 33.952-4.107c 13.525,0, 26.603,1.696, 39.221,5.067c 12.619,3.392, 23.936,8.523, 33.963,15.424
	c 10.016,6.891, 18.347,15.552, 24.981,25.963c 2.848,4.448, 5.045,9.376, 7.061,14.453c 4.384-8.811, 9.696-16.885, 16.171-24.011
	c 11.445-12.619, 25.824-22.315, 43.136-29.077c 17.301-6.773, 36.757-10.155, 58.347-10.155c 20.299,0, 40.459,2.080, 60.491,6.24
	c 20.043,4.171, 39.819,10.933, 59.339,20.288l 20.288,144.416L 465.781,256.555 L 457.589,200.341z M 279.211,235.083l0,1.163 
	c 11.371,2.272, 21.131,6.667, 29.387,13.088c-1.472-6.027-2.741-12.181-3.637-18.56c-0.32-2.251-0.416-4.384-0.651-6.581
	c-1.397,1.163-2.656,2.432-4.213,3.477C 294.24,231.563, 287.275,234.048, 279.211,235.083z" horiz-adv-x="714.667" />
<glyph unicode="&#xe052;" d="M 369.64,125.656l 43.608,43.6l0,0.008C 330.888,251.624, 196.88,251.608, 114.528,169.256l 43.6-43.6
		C 216.448,183.96, 311.336,183.96, 369.64,125.656zM 456.408,212.44L 456.408,212.44l 39.12,39.104c0,0.008,0,0.008-0.008,0.008c-127.72,127.72-335.544,127.728-463.272,0l 39.12-39.12
		C 177.52,318.576, 350.248,318.584, 456.408,212.44zM 219.56,68.32A44.32,44.32 180 1 1 308.2,68.32A44.32,44.32 180 1 1 219.56,68.32z" horiz-adv-x="528"  />
<glyph unicode="&#xe053;" d="M 169.088,212.688A95.176,95.176 180 1 1 359.44,212.688A95.176,95.176 180 1 1 169.088,212.688zM 409,246.296c-2.84,0, 2.584-0.472-0.048-1.144c-12.624,55.952-56.496,100.16-112.544,112.592
		c 0.792,2.896, 1.368-2.72, 1.368,0.44c0,18.56-15.040,33.608-33.616,33.608c-18.536,0-33.608-15.048-33.608-33.608
		c0-3.16, 0.568,2.464, 1.392-0.44c-56.032-12.424-99.872-56.608-112.544-112.528c0,2.608, 2.704,1.080-0.048,1.080
		c-18.576,0-33.608-15.064-33.608-33.616c0-18.568, 15.032-33.6, 33.608-33.6c 2.752,0-2.584,0.424,0,1.056
		c 12.592-56.016, 56.472-100.288, 112.496-112.768c-0.736-2.808-1.304,3.064-1.304,0c0-18.584, 15.072-33.608, 33.608-33.608
		c 18.576,0, 33.616,15.024, 33.616,33.608c0,3.064-0.528-2.808-1.32,0.016c 56.080,12.488, 100,56.76, 112.544,112.784
		c 2.624-0.64-2.8-1.088,0-1.088c 18.568,0, 33.656,15.032, 33.656,33.6C 442.656,231.232, 427.568,246.296, 409,246.296z M 264.16,92.848
		c-65.088,0-117.928,52.224-119.408,116.952c 0.088,0.96, 0.256,1.896, 0.256,2.872c0,0.936-0.168,1.832-0.256,2.752
		c 1.576,64.664, 54.368,116.848, 119.408,116.848c 65.416,0, 118.576-52.752, 119.536-117.92c-0.048-0.576-0.176-1.112-0.176-1.68
		c0-0.608, 0.176-1.184, 0.176-1.792C 382.784,145.64, 329.624,92.848, 264.16,92.848z" horiz-adv-x="528"  />
<glyph unicode="&#xe054;" d="M 135.696,276.464A10.136,10.136 180 1 1 155.968,276.464A10.136,10.136 180 1 1 135.696,276.464zM 135.696,322.040A10.136,10.136 180 1 1 155.968,322.03999999999996A10.136,10.136 180 1 1 135.696,322.03999999999996zM 135.696,373.712A10.136,10.136 180 1 1 155.968,373.712A10.136,10.136 180 1 1 135.696,373.712zM 177.696,373.712A10.136,10.136 180 1 1 197.968,373.712A10.136,10.136 180 1 1 177.696,373.712zM 228.36,373.712A10.136,10.136 180 1 1 248.632,373.712A10.136,10.136 180 1 1 228.36,373.712zM 376.808,179.28A10.136,10.136 180 1 1 397.080,179.27999999999997A10.136,10.136 180 1 1 376.808,179.27999999999997zM 376.808,133.704A10.136,10.136 180 1 1 397.080,133.704A10.136,10.136 180 1 1 376.808,133.704zM 376.808,82.032A10.136,10.136 180 1 1 397.080,82.03199999999998A10.136,10.136 180 1 1 376.808,82.03199999999998zM 334.808,82.032A10.136,10.136 180 1 1 355.080,82.03199999999998A10.136,10.136 180 1 1 334.808,82.03199999999998zM 284.152,82.032A10.136,10.136 180 1 1 304.424,82.03199999999998A10.136,10.136 180 1 1 284.152,82.03199999999998zM 286.64,347.2L 464.952,347.2L 464.952,208.68L 286.64,208.68zM 286.64,393.072L 464.952,393.072L 464.952,353.768L 286.64,353.768zM 70.84,197.256L 249.152,197.256L 249.152,58.736L 70.84,58.736zM 70.84,243.128L 249.152,243.128L 249.152,203.824L 70.84,203.824z" horiz-adv-x="528"  />
<glyph unicode="&#xe055;" d="M 368.146,401.365l-103.828,0 l0-31.277 L 368.146,370.088 c 14.441,0, 26.149-11.671, 26.149-26.065l0-310.156 c0-14.396-11.71-26.065-26.149-26.065l-311.183,0 
		c-14.441,0-26.149,11.668-26.149,26.065L 30.815,344.023 c0,14.394, 11.71,26.065, 26.149,26.065l 108.074,0 l0,31.277 L 56.966,401.365 c-31.723,0-57.53-25.723-57.53-57.341l0-310.156 
		c0-31.621, 25.807-57.341, 57.53-57.341l 311.183,0 c 31.723,0, 57.53,25.721, 57.53,57.341L 425.677,344.023 C 425.677,375.641, 399.869,401.365, 368.146,401.365zM 126.939,327.828l-0.62,0.62c-5.808,5.808-15.223,5.808-21.037,0l-6.294-6.299c-5.811-5.811-5.811-15.223,0-21.034
		l 2.245-2.245l-0.218-0.247l 24.148-23.686l 20.997-20.997c 0.738-0.738, 1.539-1.378, 2.376-1.93l 67.823-66.072l 67.823,66.072
		c 0.84,0.551, 1.638,1.192, 2.376,1.93l 20.997,20.997l 24.148,23.686l-0.218,0.247l 2.245,2.245c 5.811,5.811, 5.811,15.223,0,21.034
		l-3.679,3.684c-5.813,5.808-17.844,8.423-23.652,2.615l-0.62-0.62l-0.247,0.281l-40.073-40.598l-6.236-6.236
		c-0.15-0.15-0.249-0.323-0.386-0.475l-20.328-20.939l0,156.050 l0,59.547 c0,7.223-5.853,13.076-13.076,13.076l-9.074,0 l-9.074,0 c-7.223,0-13.076-5.853-13.076-13.076l0-59.547 
		l0-156.050 l-20.328,20.939c-0.142,0.155-0.242,0.326-0.386,0.475l-6.236,6.236l-40.073,40.598L 126.939,327.828zM 63.501,87.041l0-22.292 c0-10.434, 8.489-18.926, 18.923-18.926l 262.601,0 c 10.434,0, 18.923,8.491, 18.923,18.926l0,22.292 
		c0,10.434-8.489,18.926-18.923,18.926L 82.424,105.967 C 71.99,105.967, 63.501,97.476, 63.501,87.041z M 350.875,87.041l0-22.292 
		c0-3.224-2.623-5.85-5.847-5.85l-81.755,0 l0,33.994 l 81.755,0 C 348.252,92.891, 350.875,90.266, 350.875,87.041z" horiz-adv-x="427.979"  />
<glyph unicode="&#xe031;" d="M 244.77,325.608c-42.295,17.739-20.012,44.117-8.045,74.943c 11.926,30.775-12.018,46.882-38.646,55.538
		c-8.305,2.666-22.064-9.254-10.738-12.93c 16.275-5.304, 35.977-12.524, 33.43-32.877c-1.693-13.633-11.325-26.665-16.667-39.103
		c-12.448-28.938, 3.222-47.305, 29.942-58.511C 242.186,309.258, 255.833,320.976, 244.77,325.608L 244.77,325.608zM 329.267,301.121c-8.233,9.479-17.746,17.558-26.286,26.679c-13.971,14.868-1.495,32.393, 6.636,46.565
		c 13.175,22.852, 5.707,38.175-16.131,51.255c-5.69,3.41-22.828-4.683-14.793-9.489c 35.492-21.238, 7.287-42.291-0.659-70.41
		c-6.168-21.74, 22.153-38.653, 33.922-52.152C 316.532,288.297, 334.445,295.182, 329.267,301.121L 329.267,301.121zM 510.215,211.845c-10.793,26.982-39.318,43.738-74.469,43.738c-1.399,0-2.84,0.065-4.304,0L 77.691,255.614
	c-5.342,0-9.69-4.332-9.523-9.67c 3.362-106.957, 62.324-188.74, 140.616-209.811c 3.632-0.976, 4.195-2.403, 2.628-2.734l 77.295-0.106
	c-1.553,0.328-1.389,1.853, 2.243,2.816c 32.027,8.462, 60.805,26.583, 83.859,51.651c 3.618,3.932, 10.626,6.339, 15.974,6.229
	c 4.233-0.089, 8.602,0.15, 13.094,0.15c 14.66,0, 29.986,3.867, 44.353,9.598C 498.917,124.037, 526.159,171.967, 510.215,211.845z
	 M 433.77,140.766c-6.24-2.505-12.704-4.239-19.098-5.161c-5.287-0.761-7.656,3.092-5.472,7.967c 8.438,18.753, 14.684,39.854, 18.377,63.147
	c 0.84,5.274, 2.881,9.731, 4.755,9.834c 1.14,0.068, 2.273,0.099, 3.4,0.099c 18.879,0, 33.553-7.38, 38.311-19.272
	C 481.615,178.432, 463.189,152.508, 433.77,140.766zM 428.312,36.902L 305.207,36.902 c-1.495,0-2.649-0.218-3.27-0.079l-71.523,0.3c-0.621-0.14-1.625-0.218-3.116-0.218L 110.107,36.905 
	c-5.035,0-9.25-4.366-8.339-9.622c 5.222-30.095, 36.325-36.11, 80.811-36.519L 179.2-9.813l 179.77,0 l-0.751,0.591
	c 43.223,0.604, 73.305,6.936, 78.435,36.499C 437.565,32.532, 433.35,36.902, 428.312,36.902z"  />
</font>
</defs>
</svg>
